<svg width="521" height="309" fill="none" xmlns="http://www.w3.org/2000/svg"><path opacity=".2" d="M65.266 91.757c27.066-10.247 56.601-4.92 80.342 11.685 8.866-43.457 36.651-80.147 77.891-95.78 67.548-25.588 145.576 15.088 174.295 90.861 7.408 19.522 10.791 39.471 10.616 58.779a64.72 64.72 0 0111.161-5.522c36.904-13.981 79.544 8.244 95.235 49.64 15.691 41.395-.972 87.808-38.421 100.291-20.007 6.669-51.603 6.669-51.603 6.669s-307.271-24.11-316.759-24.072c-37.857.156-75.073-25.879-90.764-67.256-19.6-51.72 1.886-107.815 48.007-125.295z" fill="#EB8382"/><path d="M56.127 91.757c27.066-10.247 56.601-4.92 80.342 11.685 8.866-43.457 36.651-80.147 77.892-95.78 67.547-25.588 145.575 15.088 174.294 90.86 7.408 19.523 10.791 39.472 10.616 58.78a64.831 64.831 0 0111.161-5.523c36.904-13.98 79.545 8.245 95.236 49.641 15.691 41.395-1.517 86.311-38.421 100.291-7.817 2.955-51.604 6.669-51.604 6.669s-307.27-24.11-316.759-24.072c-37.857.156-75.072-25.879-90.764-67.256-19.599-51.72 1.887-107.816 48.007-125.295z" fill="#C9CAD6"/></svg>