<svg width="497" height="317" fill="none" xmlns="http://www.w3.org/2000/svg"><path d="M1.552 215.739L36.123 47.434c6.864-33.405 38.81-53.957 70.465-44.78l14.31 4.142a56.482 56.482 0 0015.808 2.255l31.946.078 131.421.292 34.61.078a66.03 66.03 0 0017.538-2.314L368.34 2.81c36.554-9.897 74.722 12.619 83.103 49.64l43.107 190.724c7.213 31.888-10.928 62.376-42.057 71.126-34.63 9.741-72.04-11.919-81.567-46.646l-14.797-53.937c-3.072-11.18-13.163-19.288-24.616-19.833l-191.929-8.827c-10.383-.486-19.425 6.319-22.166 16.624l-13.086 49.193c-8.341 31.324-40.365 46.471-69.064 33.152-25.083-11.667-39.354-40.735-33.716-68.287z" fill="url(#paint0_linear_39_3340)"/><path opacity=".3" d="M169.761 97.851l106.901 2.975c9.509.272 17.267-8.516 17.267-19.638V9.44l-140.287-.35v68.948c0 10.694 7.194 19.56 16.119 19.813z" fill="url(#paint1_linear_39_3340)"/><path opacity=".3" d="M82.108 241.541c.33-12.561-5.639-19.016-4.375-38.207.603-8.964 2.294-34.474 19.113-47.501 16.1-12.483 38.363-7.506 67.159-1.089 37.099 8.263 35.66 17.149 61.695 20.746 37.955 5.231 51.487-12.21 79.156-3.266 13.786 4.452 24.324 13.28 32.238 22.555a26.735 26.735 0 00-5.581-.895l-191.929-8.827c-10.383-.486-19.425 6.319-22.166 16.624l-13.086 49.193c-6.766 25.413-29.127 40.19-52.654 37.74 24.072-19.074 30.1-35.115 30.43-47.073z" fill="url(#paint2_linear_39_3340)"/><path d="M312.983 80.74c0 31.189 25.511 57.282 57.418 58.332 32.393 1.05 59.012-24.052 59.012-56.095 0-32.044-26.619-58.176-59.012-58.351-31.907-.195-57.418 24.946-57.418 56.115z" fill="url(#paint3_linear_39_3340)"/><path d="M247.866 154.958c0 25.199 20.28 46.607 45.557 47.832 25.588 1.244 46.568-18.628 46.568-44.391 0-25.763-20.98-47.209-46.568-47.87-25.296-.681-45.557 19.21-45.557 44.429z" fill="url(#paint4_linear_39_3340)"/><path d="M256.635 155.288c0 20.338 16.391 37.605 36.788 38.538 20.591.953 37.429-15.05 37.429-35.777 0-20.707-16.838-37.973-37.429-38.557-20.397-.583-36.788 15.439-36.788 35.796z" fill="url(#paint5_linear_39_3340)"/><path d="M263.927 155.697c0 14.174 11.394 26.21 25.627 26.89 14.388.7 26.19-10.48 26.19-24.965 0-14.486-11.802-26.541-26.19-26.93-14.233-.37-25.627 10.83-25.627 25.005z" fill="url(#paint6_linear_39_3340)"/><path d="M268.865 155.872c0 11.432 9.217 21.135 20.689 21.679 11.588.545 21.057-8.458 21.057-20.104 0-11.647-9.469-21.35-21.057-21.68-11.472-.35-20.689 8.672-20.689 20.105z" fill="url(#paint7_linear_39_3340)"/><path d="M112.168 149.319c0 24.285 18.822 44.876 42.29 46.024 23.741 1.147 43.185-18.025 43.185-42.816 0-24.81-19.444-45.42-43.185-46.043-23.468-.641-42.29 18.55-42.29 42.835z" fill="url(#paint8_linear_39_3340)"/><path d="M120.315 149.63c0 19.6 15.205 36.205 34.124 37.08 19.093.875 34.726-14.564 34.726-34.494s-15.613-36.554-34.726-37.099c-18.919-.544-34.124 14.914-34.124 34.513z" fill="url(#paint9_linear_39_3340)"/><path d="M123.27 149.941c0 14.175 11.394 26.21 25.627 26.891 14.389.7 26.191-10.48 26.191-24.966 0-14.485-11.802-26.541-26.191-26.929-14.233-.35-25.627 10.849-25.627 25.004z" fill="url(#paint10_linear_39_3340)"/><path d="M128.209 150.136c0 11.433 9.216 21.135 20.688 21.68 11.589.544 21.058-8.458 21.058-20.105s-9.469-21.35-21.058-21.68c-11.472-.35-20.688 8.672-20.688 20.105z" fill="url(#paint11_linear_39_3340)"/><path d="M312.964 46.636a7.011 7.011 0 007.116-7.019V27.154c0-3.909-3.188-7.117-7.116-7.117-3.908-.02-7.097 3.13-7.097 7.039V39.5c.019 3.908 3.189 7.096 7.097 7.135z" fill="url(#paint12_linear_39_3340)"/><path d="M140.459 44.556c3.577.039 6.474-2.956 6.474-6.708v-11.9c0-3.733-2.897-6.786-6.474-6.805-3.578-.02-6.456 2.994-6.456 6.727v11.861c0 3.733 2.897 6.786 6.456 6.825z" fill="url(#paint13_linear_39_3340)"/><path d="M364.295 40.376l12.23.116c3.598.039 6.534 2.936 6.534 6.475v13.922a6.38 6.38 0 01-1.089 3.538l-5.522 8.09c-1.206 1.768-3.247 2.799-5.425 2.76l-1.206-.02a6.646 6.646 0 01-5.405-2.955l-5.483-8.225a6.409 6.409 0 01-1.07-3.538V46.714c-.038-3.539 2.859-6.358 6.436-6.338z" fill="url(#paint14_linear_39_3340)"/><path d="M364.295 123.07l12.23.35c3.598.097 6.534-2.683 6.534-6.222v-13.922a6.554 6.554 0 00-1.089-3.578l-5.522-8.302a6.7 6.7 0 00-5.425-2.975l-1.206-.02c-2.177-.038-4.199.992-5.405 2.742l-5.483 8.011a6.192 6.192 0 00-1.07 3.5v13.825c-.038 3.538 2.859 6.494 6.436 6.591z" fill="url(#paint15_linear_39_3340)"/><path d="M412.944 76.58v12.133c0 3.558-2.975 6.397-6.63 6.319l-14.311-.311a6.81 6.81 0 01-3.636-1.147l-8.342-5.6c-1.827-1.225-2.916-3.247-2.916-5.386v-1.186a6.263 6.263 0 012.916-5.289l8.342-5.288a6.579 6.579 0 013.636-1.011l14.311.233c3.655.039 6.63 2.975 6.63 6.533z" fill="url(#paint16_linear_39_3340)"/><path d="M328.713 75.083v11.9c0 3.5 2.858 6.396 6.378 6.474l13.922.311c1.263.02 2.508-.31 3.558-.991l8.244-5.23a6.198 6.198 0 002.897-5.25V81.11c0-2.138-1.089-4.16-2.897-5.366l-8.244-5.542a6.484 6.484 0 00-3.558-1.127l-13.922-.234c-3.52-.039-6.378 2.761-6.378 6.242z" fill="url(#paint17_linear_39_3340)"/><path d="M361.573 40.978l12.231.117c3.597.039 6.533 2.936 6.533 6.475v13.922a6.38 6.38 0 01-1.089 3.538l-5.522 8.089c-1.206 1.77-3.247 2.8-5.425 2.76l-1.206-.019a6.646 6.646 0 01-5.405-2.955l-5.483-8.225a6.408 6.408 0 01-1.069-3.539V47.318c-.039-3.539 2.858-6.358 6.435-6.339z" fill="url(#paint18_linear_39_3340)"/><path d="M361.573 123.673l12.231.35c3.597.097 6.533-2.684 6.533-6.222v-13.922a6.557 6.557 0 00-1.089-3.578l-5.522-8.302a6.7 6.7 0 00-5.425-2.975l-1.206-.02c-2.177-.038-4.199.992-5.405 2.742l-5.483 8.01a6.19 6.19 0 00-1.069 3.501v13.824c-.039 3.558 2.858 6.494 6.435 6.592z" fill="url(#paint19_linear_39_3340)"/><path d="M410.202 77.183v12.132c0 3.559-2.975 6.398-6.63 6.32l-14.311-.311a6.81 6.81 0 01-3.636-1.148l-8.341-5.6c-1.828-1.224-2.917-3.246-2.917-5.385v-1.186a6.262 6.262 0 012.917-5.29l8.341-5.288a6.583 6.583 0 013.636-1.01l14.311.232c3.675.04 6.63 2.975 6.63 6.534z" fill="url(#paint20_linear_39_3340)"/><path d="M325.972 75.705v11.9c0 3.5 2.858 6.396 6.377 6.474l13.922.311c1.264.02 2.508-.31 3.558-.991l8.244-5.23a6.197 6.197 0 002.898-5.25v-1.186c0-2.14-1.089-4.162-2.898-5.367l-8.244-5.541a6.482 6.482 0 00-3.558-1.128l-13.922-.234c-3.519-.058-6.377 2.742-6.377 6.242z" fill="url(#paint21_linear_39_3340)"/><path d="M135.189 77.027c0 29.73-22.943 53.101-50.884 52.187-27.552-.894-49.601-25.121-49.601-54.112 0-28.99 22.049-52.381 49.6-52.226 27.942.175 50.885 24.421 50.885 54.151z" fill="url(#paint22_linear_39_3340)"/><path d="M71.55 42.534c0 7.447 5.697 13.571 12.755 13.688 7.077.097 12.833-5.91 12.833-13.416 0-7.505-5.756-13.63-12.833-13.689-7.039-.039-12.755 5.95-12.755 13.417z" fill="url(#paint23_linear_39_3340)"/><path d="M71.55 109.109c0 7.447 5.697 13.669 12.755 13.902 7.077.214 12.833-5.677 12.833-13.182 0-7.506-5.756-13.728-12.833-13.903-7.039-.175-12.755 5.717-12.755 13.183z" fill="url(#paint24_linear_39_3340)"/><path d="M116.115 63.008c-7.175-.117-12.969 5.892-12.969 13.397 0 7.525 5.794 13.746 12.969 13.902 7.194.156 13.047-5.833 13.047-13.397 0-7.563-5.853-13.785-13.047-13.902z" fill="url(#paint25_linear_39_3340)"/><path d="M53 62.036c-6.941-.117-12.56 5.794-12.56 13.202S46.059 88.752 53 88.908c6.961.155 12.639-5.756 12.639-13.203 0-7.447-5.658-13.572-12.639-13.67z" fill="url(#paint26_linear_39_3340)"/><path d="M68.828 43.136c0 7.447 5.697 13.572 12.755 13.689 7.077.097 12.833-5.911 12.833-13.416 0-7.506-5.756-13.63-12.833-13.689-7.058-.039-12.755 5.97-12.755 13.416z" fill="url(#paint27_linear_39_3340)"/><path d="M68.828 109.712c0 7.447 5.697 13.669 12.755 13.902 7.077.214 12.833-5.677 12.833-13.183 0-7.505-5.756-13.727-12.833-13.902-7.058-.175-12.755 5.717-12.755 13.183z" fill="url(#paint28_linear_39_3340)"/><path d="M113.393 63.63c-7.175-.116-12.969 5.892-12.969 13.397 0 7.525 5.794 13.747 12.969 13.902 7.194.156 13.047-5.833 13.047-13.396 0-7.564-5.853-13.806-13.047-13.903z" fill="url(#paint29_linear_39_3340)"/><path d="M50.278 62.639c-6.941-.117-12.56 5.794-12.56 13.202 0 7.389 5.619 13.513 12.56 13.669 6.961.155 12.639-5.756 12.639-13.203 0-7.447-5.678-13.571-12.639-13.669z" fill="url(#paint30_linear_39_3340)"/><path opacity=".3" d="M435.868 292.873c-1.089-13.825-19.696-15.867-23.468-33.308-5.172-23.896 26.307-36.01 23.468-61.695-2.78-25.121-35.329-35.504-30.565-50.768 2.352-7.583 10.83-6.435 22.379-16.916 16.236-14.738 19.93-35.543 20.747-41.493 5.036-37.06-24.655-64.845-30.021-69.88-9.1-8.517-18.841-14.272-27.902-18.161 28.641 1.983 54.268 22.263 60.937 51.779l43.107 190.724c7.213 31.888-10.928 62.375-42.057 71.125-9.878 2.781-19.969 2.995-29.594 1.089 10.908-9.411 13.416-16.858 12.969-22.496z" fill="url(#paint31_linear_39_3340)"/><path opacity=".3" d="M192.393 73.391c15.497-8.555 24.674 1.633 35.913-6.105 13.105-9.042 4.958-25.9 18.141-35.933 11.083-8.438 21.699-.155 37.721-6.455 3.111-1.225 6.416-2.994 9.761-5.58v61.87c0 11.102-7.758 19.91-17.267 19.638l-106.901-2.975c-2.256-.058-4.395-.68-6.32-1.73a43.541 43.541 0 007.583-3.558c11.297-6.69 10.928-13.417 21.369-19.172z" fill="#5488D0"/><defs><linearGradient id="paint0_linear_39_3340" x1="353.268" y1="-4.764" x2="158.379" y2="357.173" gradientUnits="userSpaceOnUse"><stop stop-color="#446381"/><stop offset=".996" stop-color="#826F8C"/></linearGradient><linearGradient id="paint1_linear_39_3340" x1="293.928" y1="54.968" x2="153.646" y2="54.968" gradientUnits="userSpaceOnUse"><stop stop-color="#40447E"/><stop offset=".996" stop-color="#3C3B6B"/></linearGradient><linearGradient id="paint2_linear_39_3340" x1="133.631" y1="179.056" x2="37.547" y2="80.242" gradientUnits="userSpaceOnUse"><stop stop-color="#446381"/><stop offset=".996" stop-color="#826F8C"/></linearGradient><linearGradient id="paint3_linear_39_3340" x1="338.476" y1="135.139" x2="418.546" y2="4.843" gradientUnits="userSpaceOnUse"><stop stop-color="#444B8C"/><stop offset=".996" stop-color="#26264F"/></linearGradient><linearGradient id="paint4_linear_39_3340" x1="339.997" y1="156.672" x2="247.86" y2="156.672" gradientUnits="userSpaceOnUse"><stop stop-color="#444B8C"/><stop offset=".996" stop-color="#26264F"/></linearGradient><linearGradient id="paint5_linear_39_3340" x1="302.04" y1="79.694" x2="296.945" y2="127.009" gradientUnits="userSpaceOnUse"><stop stop-color="#444B8C"/><stop offset=".996" stop-color="#26264F"/></linearGradient><linearGradient id="paint6_linear_39_3340" x1="287.68" y1="136.845" x2="296.324" y2="216.603" gradientUnits="userSpaceOnUse"><stop stop-color="#444B8C"/><stop offset=".996" stop-color="#26264F"/></linearGradient><linearGradient id="paint7_linear_39_3340" x1="289.388" y1="127.194" x2="290.173" y2="195.557" gradientUnits="userSpaceOnUse"><stop stop-color="#444B8C"/><stop offset=".996" stop-color="#26264F"/></linearGradient><linearGradient id="paint8_linear_39_3340" x1="197.642" y1="150.918" x2="112.168" y2="150.918" gradientUnits="userSpaceOnUse"><stop stop-color="#444B8C"/><stop offset=".996" stop-color="#26264F"/></linearGradient><linearGradient id="paint9_linear_39_3340" x1="164.016" y1="64.831" x2="158.921" y2="112.145" gradientUnits="userSpaceOnUse"><stop stop-color="#444B8C"/><stop offset=".996" stop-color="#26264F"/></linearGradient><linearGradient id="paint10_linear_39_3340" x1="147.024" y1="131.105" x2="155.668" y2="210.862" gradientUnits="userSpaceOnUse"><stop stop-color="#444B8C"/><stop offset=".996" stop-color="#26264F"/></linearGradient><linearGradient id="paint11_linear_39_3340" x1="148.732" y1="121.453" x2="149.518" y2="189.816" gradientUnits="userSpaceOnUse"><stop stop-color="#444B8C"/><stop offset=".996" stop-color="#26264F"/></linearGradient><linearGradient id="paint12_linear_39_3340" x1="322.838" y1="4.707" x2="305.368" y2="55.479" gradientUnits="userSpaceOnUse"><stop stop-color="#AA80F9"/><stop offset=".996" stop-color="#6165D7"/></linearGradient><linearGradient id="paint13_linear_39_3340" x1="168.135" y1="-48.523" x2="150.666" y2="2.248" gradientUnits="userSpaceOnUse"><stop stop-color="#AA80F9"/><stop offset=".996" stop-color="#6165D7"/></linearGradient><linearGradient id="paint14_linear_39_3340" x1="311.967" y1="111.37" x2="325.979" y2="97.903" gradientUnits="userSpaceOnUse"><stop stop-color="#AA80F9"/><stop offset=".996" stop-color="#6165D7"/></linearGradient><linearGradient id="paint15_linear_39_3340" x1="338.639" y1="139.123" x2="352.651" y2="125.656" gradientUnits="userSpaceOnUse"><stop stop-color="#AA80F9"/><stop offset=".996" stop-color="#6165D7"/></linearGradient><linearGradient id="paint16_linear_39_3340" x1="338.696" y1="139.182" x2="352.708" y2="125.716" gradientUnits="userSpaceOnUse"><stop stop-color="#AA80F9"/><stop offset=".996" stop-color="#6165D7"/></linearGradient><linearGradient id="paint17_linear_39_3340" x1="312.088" y1="111.495" x2="326.1" y2="98.029" gradientUnits="userSpaceOnUse"><stop stop-color="#AA80F9"/><stop offset=".996" stop-color="#6165D7"/></linearGradient><linearGradient id="paint18_linear_39_3340" x1="377.537" y1="48.657" x2="360.7" y2="49.253" gradientUnits="userSpaceOnUse"><stop stop-color="#4499D9"/><stop offset="1" stop-color="#6E6CC1"/></linearGradient><linearGradient id="paint19_linear_39_3340" x1="377.537" y1="96.708" x2="360.699" y2="97.302" gradientUnits="userSpaceOnUse"><stop stop-color="#4499D9"/><stop offset="1" stop-color="#6E6CC1"/></linearGradient><linearGradient id="paint20_linear_39_3340" x1="406.221" y1="75.964" x2="382.363" y2="77.626" gradientUnits="userSpaceOnUse"><stop stop-color="#4499D9"/><stop offset="1" stop-color="#6E6CC1"/></linearGradient><linearGradient id="paint21_linear_39_3340" x1="357.082" y1="74.947" x2="333.778" y2="76.551" gradientUnits="userSpaceOnUse"><stop stop-color="#4499D9"/><stop offset="1" stop-color="#6E6CC1"/></linearGradient><linearGradient id="paint22_linear_39_3340" x1="54.288" y1="126.157" x2="139.454" y2="-12.875" gradientUnits="userSpaceOnUse"><stop stop-color="#444B8C"/><stop offset=".996" stop-color="#26264F"/></linearGradient><linearGradient id="paint23_linear_39_3340" x1="15.183" y1="111.841" x2="34.291" y2="92.733" gradientUnits="userSpaceOnUse"><stop stop-color="#AA80F9"/><stop offset=".996" stop-color="#6165D7"/></linearGradient><linearGradient id="paint24_linear_39_3340" x1="48.577" y1="145.235" x2="67.685" y2="126.127" gradientUnits="userSpaceOnUse"><stop stop-color="#AA80F9"/><stop offset=".996" stop-color="#6165D7"/></linearGradient><linearGradient id="paint25_linear_39_3340" x1="48.088" y1="144.746" x2="67.196" y2="125.638" gradientUnits="userSpaceOnUse"><stop stop-color="#AA80F9"/><stop offset=".996" stop-color="#6165D7"/></linearGradient><linearGradient id="paint26_linear_39_3340" x1="15.929" y1="112.587" x2="35.036" y2="93.479" gradientUnits="userSpaceOnUse"><stop stop-color="#AA80F9"/><stop offset=".996" stop-color="#6165D7"/></linearGradient><linearGradient id="paint27_linear_39_3340" x1="91.573" y1="35.684" x2="74.491" y2="36.474" gradientUnits="userSpaceOnUse"><stop stop-color="#4499D9"/><stop offset="1" stop-color="#6E6CC1"/></linearGradient><linearGradient id="paint28_linear_39_3340" x1="91.573" y1="102.486" x2="74.491" y2="103.277" gradientUnits="userSpaceOnUse"><stop stop-color="#4499D9"/><stop offset="1" stop-color="#6E6CC1"/></linearGradient><linearGradient id="paint29_linear_39_3340" x1="123.549" y1="69.635" x2="106.183" y2="70.447" gradientUnits="userSpaceOnUse"><stop stop-color="#4499D9"/><stop offset="1" stop-color="#6E6CC1"/></linearGradient><linearGradient id="paint30_linear_39_3340" x1="60.117" y1="68.55" x2="43.294" y2="69.323" gradientUnits="userSpaceOnUse"><stop stop-color="#4499D9"/><stop offset="1" stop-color="#6E6CC1"/></linearGradient><linearGradient id="paint31_linear_39_3340" x1="482.019" y1="64.564" x2="287.129" y2="426.501" gradientUnits="userSpaceOnUse"><stop stop-color="#444B8C"/><stop offset=".996" stop-color="#26264F"/></linearGradient></defs></svg>