<svg width="557" height="572" fill="none" xmlns="http://www.w3.org/2000/svg"><path d="M320.61 565.59c75.5-1.337 192.299-29.931 225.918-103.431 11.744-25.669 10.946-63.407 9.352-138.883-.467-22.182-1.244-54.515-6.689-94.636-11.296-83.341-18.996-140.065-48.123-173.114-72.973-82.78-336.591-80.378-449.171 68.637-61.404 81.288-70.853 196.943-14.7 292.509C99.03 521.923 219.541 567.372 320.61 565.59z" fill="url(#paint0_linear_1272_2)" fill-opacity=".17"/><path opacity=".5" d="M193.794 559.207c43.15-22.379 114.968-62.426 168.166-96.585 53.199-34.158 78.616-60.954 47.879-78.916-35.17-20.318-101.373 3.239-160.482 42.108-64.725 42.698-93.393 66.255-123.834 89.223-19.506 14.724-9.162 27.091 9.753 38.87 19.211 12.073 34.579 17.668 58.518 5.3z" fill="url(#paint1_linear_1272_2)"/><path d="M230.103 225.379c6.083 0 10.813 3.031 10.813 6.397 0 3.704-4.73 6.397-10.813 6.397-6.082 0-10.813-3.03-10.813-6.397 0-3.366 5.069-6.397 10.813-6.397z" fill="#002F68"/><path d="M230.441 225.379c4.393 0 8.11 2.02 8.11 4.377 0 2.357-3.717 4.377-8.11 4.377-4.393 0-8.11-2.02-8.11-4.377 0-2.357 3.717-4.377 8.11-4.377z" fill="#DF8083"/><path d="M230.103 236.49s-2.027 5.724-2.027 12.794c-.338 7.07.338 18.517-4.055 23.567-4.393 5.387-8.448-1.346-8.448-8.753-.338-7.407 4.055-31.985 4.055-31.985l10.475 4.377z" fill="#002F68"/><path d="M229.09 249.284s-1.352-1.683-3.379-1.01c-1.352.337-4.055 2.02-5.069 2.02-1.014 0-3.379-2.02-3.379-2.02l1.014-6.06s-6.083 2.357-7.097 7.744c-1.351 5.386-3.717 6.396-9.123 8.417-5.407 2.02-11.151 5.723-11.151 5.723l8.447 13.467s13.517-12.12 14.869-13.467l7.096-7.07c.676-1.01 3.379-3.704 4.393-4.377.676-1.347 3.379-3.367 3.379-3.367zm-1.352 209.078s-16.558 30.974-20.275 44.105c-2.027 7.07-6.758 33.331-6.758 33.331s3.041-4.04 7.772-5.387c3.041-.673 7.434-1.346 10.137 2.357 4.731 6.06 5.407 10.437-2.027 17.171-3.041 3.03-8.786 7.744-13.517 12.12-5.744 5.051-12.503 10.101-18.247 9.764-6.083-.337-10.138-3.367-9.8-10.437.338-4.04 3.379-10.437 3.379-12.794.676-6.397 2.028-46.125 4.731-70.703 1.352-12.457 4.731-19.527 4.731-19.527h39.874zm-69.272-39.055s-16.558 30.975-20.275 44.105c-2.028 7.071-9.124 36.698-9.124 36.698s9.461-7.743 18.585-4.376c8.448 3.03 4.055 9.09-3.041 15.487-3.041 3.03-7.434 6.06-12.165 10.1-5.745 5.051-7.434 6.734-10.813 7.744-5.745 1.683-12.841 1.01-12.503-6.06.338-4.04.676-11.111 1.014-13.467.675-6.397 2.027-46.126 4.73-70.703 1.352-12.457 4.731-19.528 4.731-19.528h38.861z" fill="#FFC5B3"/><path d="M188.202 383.956s24.668 34.341 32.102 48.818c2.365 4.714 8.786 15.151 8.786 20.201 0 5.724-2.028 12.457-2.028 12.457s-14.868 12.121-27.033 10.101c-14.193-2.357-18.586-10.437-18.586-10.437s-19.937-24.241-28.384-32.322c-8.448-8.08-22.641-24.914-27.372-37.034-3.717-9.091-6.42-32.322 0-39.729 6.421-7.407 62.515 27.945 62.515 27.945z" fill="url(#paint2_linear_1272_2)"/><path d="M157.451 367.459l-1.689 49.492s-1.69 17.844-2.703 24.577c-5.745 5.724-12.165 8.417-18.248 7.744-13.179-2.02-22.64-10.774-22.64-10.774s-13.517-51.512-10.814-62.959c2.704-11.447 11.828-24.241 11.828-24.241l44.266 16.161z" fill="url(#paint3_linear_1272_2)"/><path d="M184.485 256.354s12.503 3.367 16.558 11.11c4.73 8.754 9.461 23.568 5.068 38.382-4.393 14.814-14.868 39.728-16.896 44.442-1.689 4.713 6.083 12.794 4.393 16.16-2.027 3.367-6.082 7.744-3.717 9.091 2.366 1.347 3.717 8.754 3.717 8.754s-32.102 14.477-52.715 6.396c-20.274-8.08-37.17-24.577-37.17-24.577s2.365-9.764 6.42-15.151c4.055-5.387.676-14.814 4.393-17.507 3.717-2.694 10.813-4.04 10.138-8.417-.676-4.377-3.718-46.799 6.42-60.266 10.137-13.467 28.723-15.151 28.723-15.151l24.668 6.734z" fill="#446381"/><path d="M167.927 190.364c-11.489 1.684-20.275 7.744-20.275 14.814v.674c0 1.346.676 2.693 1.352 4.04 1.013-1.684 2.365-3.367 4.393-4.714 3.717-2.693 8.785-4.713 14.53-5.723v-9.091z" fill="#0E58C4"/><path d="M167.927 190.701c-11.489 1.684-19.937 7.744-19.937 14.814v.674c0 1.346.676 2.693 1.351 4.04 1.014-1.684 2.366-3.367 4.393-4.714 3.38-2.693 8.448-4.713 14.193-5.387v-9.427z" fill="#37A0F5"/><path d="M186.174 195.415l30.413 17.507c1.689 1.01 3.379 0 3.379-2.356v-12.121c0-2.357-1.352-5.05-3.379-6.06l-30.413-17.507c-1.689-1.01-3.379 0-3.379 2.356v12.121c.338 2.357 1.69 5.05 3.379 6.06z" fill="#786D8A"/><path d="M215.235 214.942l3.379-2.02-1.014-2.356-4.055 1.683c0 .337 1.69 2.693 1.69 2.693z" fill="#7A6D8B"/><path d="M180.768 176.561l3.379-2.02 1.351 1.347-3.041 3.03-1.689-2.357z" fill="#806E8B"/><path d="M182.795 197.435l30.413 17.507c1.689 1.01 3.379 0 3.379-2.356v-12.121c0-2.357-1.352-5.05-3.379-6.06l-30.413-17.508c-1.689-1.01-3.379 0-3.379 2.357v12.121c.338 2.356 1.69 5.05 3.379 6.06z" fill="url(#paint4_linear_1272_2)"/><path d="M180.768 176.561l-11.827 6.733 34.467 38.382 11.827-6.734-34.467-38.381z" fill="#A676D4"/><path d="M213.208 213.933l-4.731 2.693c-1.014.337-1.69 0-1.69-1.346v-6.061c0-1.01.676-2.693 1.69-3.03l4.731-2.693c1.013-.337 1.689 0 1.689 1.347v6.06c0 1.347-.676 2.693-1.689 3.03z" fill="#41A0E2"/><path d="M214.221 203.496l-.338-.337-.338.337.676.338v-.338zm-7.096 13.131h.676l-.676-.338v.338z" fill="#41A0E2"/><path d="M212.869 213.933l-4.73 2.693c-1.014.337-1.69 0-1.69-1.346v-6.061c0-1.01.676-2.693 1.69-3.03l4.73-2.693c1.014-.337 1.69 0 1.69 1.347v6.06c0 1.01-.676 2.357-1.69 3.03z" fill="#fff"/><path d="M212.532 208.883c0 1.346-1.014 3.03-2.028 3.703-1.013.673-2.027 0-2.027-1.347 0-1.346 1.014-3.03 2.027-3.703 1.352-1.01 2.028-.337 2.028 1.347z" fill="#786D8A"/><path d="M171.306 204.169l30.413 17.507c1.689 1.01 3.379 0 3.379-2.357v-12.12c0-2.357-1.352-5.05-3.379-6.061l-30.413-17.507c-1.689-1.01-3.379 0-3.379 2.357v12.12c0 2.357 1.352 5.051 3.379 6.061z" fill="#002F68"/><path d="M198.339 224.706l5.407-3.03s-2.028-3.367-2.365-3.367l-4.393 1.01 1.351 5.387zm-34.467-38.718l5.069-2.693 2.027 2.02-2.365 3.367-4.731-2.694z" fill="#002F68"/><path d="M167.927 198.108v-10.437c-1.014-.336-2.028-.336-2.703-.336-1.014 0-1.69 1.01-1.69 2.693v11.447c0 2.02.676 4.04 2.366 5.387.337 0 1.013.673 1.689.673 2.365 1.01 8.786 3.367 13.855 6.397 3.379 2.02 10.475 7.407 14.192 10.101 1.352 1.01 2.703 0 2.703-2.02v-1.347l-27.371-15.824c-1.689-1.683-3.041-4.377-3.041-6.734z" fill="#002F68"/><path d="M196.312 205.179c-2.027-2.694-7.096-8.081-14.53-12.121-4.731-2.693-10.475-4.377-13.855-5.387v10.437c0 2.357 1.352 5.05 3.38 6.061l27.371 15.823v-9.763c0-2.357-1.352-3.704-2.366-5.05z" fill="#002F68"/><path d="M176.375 193.732c0-.673 0-1.347.338-1.683-2.366-1.011-4.055.673-4.055 3.703 0 3.367 2.027 7.407 4.73 8.754 2.028 1.346 3.717.336 4.393-1.684-.338 0-.338-.336-.676-.336-2.703-1.347-4.73-5.387-4.73-8.754z" fill="#002F68"/><path d="M177.05 192.048c-.338 0-.338-.337-.676-.337 0 .674-.337 1.01-.337 1.684 0 3.367 2.027 7.407 4.73 8.754.338 0 .338.336.676.336 0-.673.338-1.01.338-1.683 0-3.367-2.027-7.407-4.731-8.754z" fill="#41A0E2"/><path d="M190.567 201.812c0-.673 0-1.346.338-1.683-2.365-1.01-4.055.673-4.055 3.704 0 3.366 2.028 7.407 4.731 8.753 2.028 1.347 3.717.337 4.393-1.683-.338 0-.338-.337-.676-.337-2.703-1.347-4.731-5.387-4.731-8.754z" fill="#002F68"/><path d="M191.243 200.129c-.338 0-.338-.337-.676-.337 0 .673-.338 1.01-.338 1.684 0 3.366 2.028 7.406 4.731 8.753.338 0 .338.337.676.337 0-.673.338-1.01.338-1.684 0-3.03-2.027-7.07-4.731-8.753z" fill="#41A0E2"/><path d="M193.271 195.078l-11.151-6.733 1.351-.674 11.151 6.397-1.351 1.01z" fill="#002F68"/><path d="M184.485 193.394c-6.421-4.713-19.261-3.03-24.668 8.417-3.041 6.397 1.352 23.568 2.027 35.689.676 9.763-2.703 15.487-2.703 15.487l8.448 3.367c8.448 3.367 17.234 0 17.234 0l-.338-14.814s9.124-1.347 10.475-2.694c3.717-3.367 5.745-13.804 4.055-27.271-2.703-19.864-12.165-16.497-14.53-18.181zm44.267 49.156s.676.673 1.351 1.683c.676 1.01.338 2.02-.338 2.02-.337.337-.675.337-.675.337s.675 1.347 1.351 2.357c.338 1.01-1.014 1.683-1.351 1.683-.338 0 1.013 1.01 1.013 2.02s-2.027.674-2.027.674-.676-8.081.676-10.774z" fill="#FFC5B3"/><path d="M267.612 245.917c6.082 0 10.813 3.03 10.813 6.397 0 3.703-4.731 6.397-10.813 6.397-6.083 0-10.813-3.03-10.813-6.397 0-3.704 4.73-6.397 10.813-6.397z" fill="#002F68"/><path d="M267.949 245.917c4.393 0 8.11 2.02 8.11 4.377 0 2.356-3.717 4.377-8.11 4.377-4.392 0-8.11-2.021-8.11-4.377 0-2.694 3.718-4.377 8.11-4.377z" fill="#DD8084"/><path d="M267.611 256.691s-2.027 5.723-2.027 12.794c-.338 7.07.338 18.517-4.055 23.567-4.393 5.387-8.448-1.346-8.448-8.753-.338-7.407 4.055-31.985 4.055-31.985l10.475 4.377z" fill="#002F68"/><path d="M195.298 263.761c7.096.673 20.951 27.944 27.371 41.412 4.731-4.377 14.193-12.458 25.006-19.528 3.041-2.02.676-15.15 6.758-18.854.338 3.704 3.717 3.704 5.745 3.367 4.055-.337 5.407-1.347 5.407-4.04 1.013-.337 2.365-.337 3.717 1.01 1.351-.337 4.055 1.683 3.379 3.703 2.703 2.02 2.027 7.071.338 9.427-3.717 5.05-11.152 10.437-15.544 16.161-4.055 5.387-25.006 33.331-39.537 37.708-1.013-.337-5.068-.337-7.772-3.03-9.461-9.427-23.654-33.331-24.33-47.472-.675-11.447 4.393-20.537 9.462-19.864z" fill="#FFC5B3"/><path d="M192.595 216.963c1.013-3.367 3.379-11.111 3.717-14.141.675-3.703 1.013-9.09-4.055-14.14-5.069-5.051-22.303-6.734-28.385-3.367-6.083 3.703-19.599 10.1-14.869 31.648 3.718 17.17 7.435 19.19 12.503 23.231 4.731 3.703 12.503 4.376 12.503 4.376s4.393-3.366 5.407-9.763c.338-2.02 0-8.417 0-8.417s-4.731-9.091-1.014-12.121c3.717-3.367 7.772 2.02 8.448 4.377 3.041 7.744 1.69 22.221 1.69 22.221s4.73 3.03 9.123 1.683c2.366-.673.338-10.437.338-10.437s-4.731-2.357-5.406-15.15z" fill="#002F68"/><path d="M202.732 208.882l-2.028 1.01v12.121l2.028-1.01v-12.121z" fill="#EB8382"/><path d="M200.705 209.892l-.338-.336v11.784l.338.673v-12.121z" fill="#C37A87"/><path d="M200.367 209.556l.338.337 2.027-1.01-.676-.337-1.689 1.01z" fill="#fff"/><path d="M201.719 210.229c-1.014.673-3.041 2.693-3.717 3.367-4.731 4.04-13.179 6.733-22.303 6.733-9.461 0-17.571-2.693-22.302-6.733-1.352-1.347-2.703-2.694-3.379-4.041-.676-1.346-1.014-3.703-1.352-5.05l-.338 2.357.338 6.734v.673c0 8.417 12.165 15.151 27.033 15.151 10.814 0 20.275-3.704 24.668-8.754l2.028-10.437h-.676z" fill="#C37A87"/><path d="M202.056 210.229c-.675.673-3.041 3.03-4.055 3.703-5.068 4.04-13.178 6.734-22.978 6.734-9.461 0-17.909-2.694-22.978-6.734-1.69-1.347-2.703-2.693-3.717-4.04-.676-1.347-1.014-2.693-1.352-4.04v8.753c0 8.417 12.503 15.488 27.709 15.488 9.462 0 17.91-2.694 22.979-6.734.675-.673 3.041-2.693 3.717-3.367v-9.763h.675z" fill="url(#paint5_linear_1272_2)"/><path d="M179.078 181.275c-3.379-2.357-7.772-2.357-12.503.674-7.772 4.376-15.882 16.16-17.572 28.617 1.69 4.714 7.772 6.734 8.786 6.061 1.352-12.121 8.448-23.568 17.234-28.955 0 0 .338 0 .338-.337 2.365-1.346 4.731-2.02 6.758-2.02h2.703c1.014 0 1.69.337 1.69.337l-7.434-4.377z" fill="#C37A87"/><path d="M179.416 180.937c-4.055-2.02-8.11-2.356-13.179.337-7.772 4.377-15.882 16.161-17.571 28.618 1.351 5.05 7.096 6.734 8.448 7.407 1.689-13.131 9.123-24.914 17.909-30.301 0 0 .338 0 .338-.337 2.365-1.347 4.731-2.02 6.758-2.02 1.69 0 3.38.337 4.731 1.01l-7.434-4.714z" fill="url(#paint6_linear_1272_2)"/><path d="M162.52 399.443c1.352 3.367 3.717 10.437 6.083 13.467 3.379 4.377-4.731 5.387-10.138 6.397-5.744.673-15.206-6.06-18.585-11.784-3.042-5.723-4.055-14.14-4.055-14.477 8.448 5.387 16.896 8.754 26.695 6.397z" fill="url(#paint7_linear_1272_2)"/><path d="M121.97 391.026c.338 2.02 1.014 5.723 2.028 9.427 1.689 5.723-1.69 10.1-6.759 6.06-5.068-3.703-10.137-10.1-11.489-15.487-1.014-3.704-1.689-10.774-2.027-13.467 4.731 5.723 10.813 10.1 18.247 13.467z" fill="url(#paint8_linear_1272_2)"/><defs><linearGradient id="paint0_linear_1272_2" x1="278.392" y1="565.64" x2="278.392" y2=".852" gradientUnits="userSpaceOnUse"><stop stop-color="#EB8382"/><stop offset="1" stop-color="#EB8382" stop-opacity="0"/></linearGradient><linearGradient id="paint1_linear_1272_2" x1="340.602" y1="343.811" x2="198.641" y2="590.599" gradientUnits="userSpaceOnUse"><stop stop-color="#DFB8BF"/><stop offset=".962" stop-color="#EB8382"/></linearGradient><linearGradient id="paint2_linear_1272_2" x1="133.739" y1="381.561" x2="205.365" y2="384.68" gradientUnits="userSpaceOnUse"><stop stop-color="#4499D9"/><stop offset="1" stop-color="#6E6CC1"/></linearGradient><linearGradient id="paint3_linear_1272_2" x1="107.272" y1="372.875" x2="145.008" y2="373.94" gradientUnits="userSpaceOnUse"><stop stop-color="#4499D9"/><stop offset="1" stop-color="#6E6CC1"/></linearGradient><linearGradient id="paint4_linear_1272_2" x1="198.002" y1="176.507" x2="198.002" y2="215.332" gradientUnits="userSpaceOnUse"><stop stop-color="#6379E3"/><stop offset="1" stop-color="#D574C9"/></linearGradient><linearGradient id="paint5_linear_1272_2" x1="174.516" y1="205.852" x2="174.516" y2="230.093" gradientUnits="userSpaceOnUse"><stop stop-color="#EB8382"/><stop offset="1" stop-color="#EB8382" stop-opacity="0"/></linearGradient><linearGradient id="paint6_linear_1272_2" x1="167.758" y1="179.338" x2="167.758" y2="217.299" gradientUnits="userSpaceOnUse"><stop stop-color="#EB8382"/><stop offset="1" stop-color="#EB8382" stop-opacity="0"/></linearGradient><linearGradient id="paint7_linear_1272_2" x1="139.555" y1="398.834" x2="161.93" y2="400.234" gradientUnits="userSpaceOnUse"><stop stop-color="#4499D9"/><stop offset="1" stop-color="#6E6CC1"/></linearGradient><linearGradient id="paint8_linear_1272_2" x1="106.024" y1="384.274" x2="119.867" y2="384.735" gradientUnits="userSpaceOnUse"><stop stop-color="#4499D9"/><stop offset="1" stop-color="#6E6CC1"/></linearGradient></defs></svg>