<svg width="519" height="469" fill="none" xmlns="http://www.w3.org/2000/svg"><path opacity=".3" d="M285.585 468.829c128.635 0 232.915-104.28 232.915-232.915S414.22 2.999 285.585 2.999 52.67 107.279 52.67 235.914s104.28 232.915 232.915 232.915z" fill="#4E8FD3"/><path opacity=".3" d="M232.915 465.829c128.635 0 232.915-104.28 232.915-232.915S361.55-.001 232.915-.001 0 104.279 0 232.914s104.28 232.915 232.915 232.915z" fill="#4E8FD3"/><path d="M260.492 467.829c128.636 0 232.915-104.28 232.915-232.915S389.128 1.999 260.492 1.999c-128.635 0-232.915 104.28-232.915 232.915s104.28 232.915 232.915 232.915z" fill="url(#paint0_linear_1277_2)"/><defs><linearGradient id="paint0_linear_1277_2" x1="260.492" y1="1.999" x2="260.492" y2="467.829" gradientUnits="userSpaceOnUse"><stop stop-color="#826F8C"/><stop offset="1" stop-color="#446381"/></linearGradient></defs></svg>