<svg width="20" height="20" fill="none" xmlns="http://www.w3.org/2000/svg"><path d="M10.012 4.877a5.127 5.127 0 104.733 3.165 5.12 5.12 0 00-4.732-3.165zm0 8.459a3.332 3.332 0 113.325-3.332 3.34 3.34 0 01-3.325 3.332zm6.525-8.677a1.195 1.195 0 11-2.39 0 1.195 1.195 0 012.39 0zm3.395 1.215a5.92 5.92 0 00-1.615-4.19A5.957 5.957 0 0014.127.07c-1.65-.092-6.6-.092-8.25 0a5.95 5.95 0 00-4.192 1.615 5.937 5.937 0 00-1.614 4.19c-.093 1.65-.093 6.6 0 8.25a5.92 5.92 0 001.614 4.192 5.965 5.965 0 004.19 1.615c1.65.092 6.6.092 8.25 0a5.92 5.92 0 004.19-1.615 5.957 5.957 0 001.614-4.19c.093-1.65.093-6.595 0-8.25l.003-.002zm-2.133 10.034a3.374 3.374 0 01-1.9 1.9 22.044 22.044 0 01-5.886.393 22.212 22.212 0 01-5.895-.403 3.374 3.374 0 01-1.9-1.9 22.042 22.042 0 01-.413-5.894 22.21 22.21 0 01.403-5.895 3.375 3.375 0 011.9-1.9c1.94-.4 3.927-.536 5.904-.405a22.21 22.21 0 015.895.403 3.375 3.375 0 011.9 1.9 22 22 0 01.402 5.894 22.028 22.028 0 01-.41 5.907z" fill="#446381"/></svg>