<svg width="473" height="123" fill="none" xmlns="http://www.w3.org/2000/svg"><path d="M470.744 50.75c3.412 4.436 1.194 4.095-2.559 4.265-35.314 1.535-70.798 1.535-106.283 1.706-.341 0-10.236 1.024-.512-2.73 26.272-10.406 53.056-20.3 80.181-27.636 5.63-1.536 5.289-1.194 8.53 1.706 3.242 2.9 6.142 6.141 9.042 9.212 3.924 4.265 8.018 8.7 11.601 13.477zM89.287 80.605C61.479 74.463 33.33 69.516 5.353 64.057c-8.36-1.706-4.777 2.559-3.412 5.8 2.9 6.995 5.8 13.819 9.212 20.472 2.56 4.947 2.9 4.606 8.36 3.924 23.542-2.73 46.914-6.312 70.115-10.407 9.042-1.535 3.412-2.559-.341-3.241zM402.675 4.348c-4.947-1.706-10.236-2.9-15.524-4.095-3.071-.682-5.63 0-7.336 2.218-7.677 9.895-14.842 20.472-22.007 30.878-4.436 6.312-1.877 4.436 1.876 2.218 14.501-8.7 29.684-16.548 43.844-25.93 4.265-2.901 3.412-3.754-.853-5.29zM70.692 23.966a314.999 314.999 0 01-11.43 4.436c-5.8 2.218-4.606 2.9-.683 5.118 10.407 5.63 21.154 10.747 31.902 16.036 4.947 2.388 5.118 1.877 2.218-2.388a292.12 292.12 0 00-14.842-20.984c-2.388-3.412-3.583-3.753-7.165-2.218zm310.488 71.31c-6.824-5.63-13.819-10.918-20.984-16.036-2.559-1.876-3.753-1.365-2.388 1.706 4.947 10.918 9.724 22.007 15.012 32.755 2.73 5.63 3.242 5.118 5.46-.171 1.535-3.582 3.07-6.994 4.606-10.406 2.559-5.971 1.706-5.118-1.706-7.848zm-283.363.512c-9.554 7.336-18.937 15.013-27.978 23.031-3.924 3.412-3.242 4.435.853 4.094 3.07-.17 5.97-.341 9.041-.853 4.265-.682 5.8-1.535 9.383-6.653 4.095-5.971 8.018-11.771 11.772-18.084 4.094-7.335-1.195-3.07-3.071-1.535z" fill="#EB8382"/><path d="M380.668 107.73c-.341.17-.853.17-1.194.341-4.777 1.024-7.848-5.288-10.066-8.53a492.733 492.733 0 01-10.065-15.695c-.512-1.023-1.194-1.876-1.706-2.9 4.948 10.918 9.724 22.007 14.842 32.755 2.73 5.63 3.242 5.118 5.459-.171 1.194-1.876 2.047-3.753 2.73-5.8zm78.475-70.628c-1.024-1.194-2.047-2.218-3.071-3.412 1.024 2.218 1.877 4.606 2.9 6.824 1.536 3.241 4.436 9.554-.853 10.577-5.971 1.194-12.453 1.194-18.424 1.706-21.666 1.365-43.503 2.218-65.169 3.242-5.629.17-11.089.511-16.718.852 1.194.342 3.923 0 4.265 0 35.313-.34 70.798-.17 106.282-1.706 3.753-.17 5.971.171 2.559-4.264-3.753-4.948-7.847-9.383-11.771-13.819zM390.051 13.39c-3.924 2.9-7.848 5.97-11.771 8.87-4.436 3.242-8.701 6.653-12.966 9.895 12.795-7.506 25.931-14.33 38.214-22.69 4.265-2.9 3.412-3.753-.853-5.118-3.412-1.194-6.824-2.047-10.236-2.9 1.536 1.365 2.559 2.9 2.73 4.948.341 3.241-2.9 5.288-5.118 6.994zM97.817 95.788l-.512.512c-2.218 5.971-11.089 16.377-12.454 17.742a52.244 52.244 0 01-10.747 8.7c2.047-.17 3.923-.341 5.8-.682 4.265-.682 5.8-1.535 9.383-6.653 4.094-5.971 8.018-11.772 11.771-18.084 3.924-7.335-1.365-3.07-3.241-1.535zM82.463 43.926c-4.947-3.07-10.065-6.312-14.671-9.895-2.048-1.535-3.924-3.582-4.265-6.141v-1.194c-1.536.512-2.9 1.194-4.436 1.706-5.8 2.218-4.606 2.9-.682 5.118 10.406 5.63 21.154 10.747 31.901 16.036 1.877.853 2.9 1.365 3.583 1.535-3.583-2.388-7.506-4.776-11.43-7.165zM93.04 83.164c-15.866 1.706-31.902 2.559-47.938 3.582-4.947.342-9.895.512-14.842.342-5.118-.171-10.748-.512-15.354-2.73C10.13 82.14 7.23 78.046 3.988 74.293c2.218 5.459 4.606 10.918 7.336 16.206 2.559 4.948 2.9 4.607 8.359 3.924 23.542-2.73 46.914-6.312 70.116-10.406 1.364-.341 2.388-.683 3.241-.853z" fill="#C37A87"/></svg>