<svg width="209" height="280" fill="none" xmlns="http://www.w3.org/2000/svg"><path d="M163.734 279.474c2.819.486 9.372-.972 10.927-2.042 10.325-7.194 30.547-19.404 33.677-32.335.525-2.216-8.555-7.174-9.294-9.585-5.017-4.57-7.039-5.853-9.683-12.542-7.778-19.774 30.157-40.851-.175-61.578-22.224-15.186-45.537-13.066-31.266-50.379 14.292-37.332 5.25-116.04-43.126-101.73-27.766 8.205-14.213 47.793-33.404 68.092-18.239 19.288-14.311 40.929 5.677 61.948s3.889 27.552-9.722 47.015c-16.352 23.372 22.166 40.152 40.599 46.374 14.816 4.977 49.251 27.765 45.79 46.762z" fill="url(#paint0_linear_39_3291)"/><path d="M190.819 262.247l.409-.447C122.727 198.024 99.472 100.494 129.066.942l-.583-.175c-14.019 47.19-16.197 95.76-6.32 140.481 10.403 47.015 34.124 88.858 68.656 120.999z" fill="#FCFDFE"/><path d="M69.412 195.224c25.588-.525 64.573 11.141 86.895 26.016l.33-.506c-22.399-14.932-61.54-26.657-87.244-26.113l.02.603zM177.5 249.569l.525-.311c-7.174-11.958-8.03-27.085-2.527-44.934 4.024-13.105 11.316-27.338 21.641-42.349l-.506-.35c-10.364 15.05-17.674 29.341-21.719 42.504-5.541 18.044-4.666 33.327 2.586 45.44zm-56.503-114.718l.544-.292c-12.366-23.235-36.943-35.932-55.376-42.504l-.194.564c18.335 6.553 42.757 19.172 55.026 42.232zm-4.861-60.042l.583.136c6.572-28.894 30.449-48.862 44.099-58.176l-.35-.506c-13.708 9.372-37.702 29.438-44.332 58.546z" fill="#FCFDFE"/><path d="M177.889 265.261c2.703-.895 7.817-5.25 8.672-6.942 5.736-11.199 17.85-31.479 14.525-44.37-.564-2.198-10.928-2.334-12.717-4.103-6.591-1.672-8.963-1.847-14.446-6.533-16.158-13.786 7.427-50.224-29.088-54.287-26.755-2.975-46.335 9.877-51.273-29.788-4.94-39.665-49.893-104.9-85.884-69.531-20.649 20.3 9.917 48.862 2.509 75.792-7.04 25.588 6.591 42.854 34.104 52.012 27.513 9.158 16.372 22.496 13.513 46.082-3.441 28.31 38.421 25.024 57.632 21.874 15.477-2.547 56.581 1.4 62.453 19.794z" fill="url(#paint1_linear_39_3291)"/><path d="M193.697 237.32l.155-.583C103.4 212.626 37.058 137.457 16.389 35.687l-.603.117c9.8 48.24 30.702 92.145 60.45 126.988 31.286 36.593 71.885 62.376 117.461 74.528z" fill="#FCFDFE"/><path d="M55.043 235.201c22.341-12.503 62.24-20.514 88.936-17.869l.058-.603c-26.793-2.664-66.847 5.386-89.285 17.947l.291.525zm120.941-2.82l.311-.525c-11.939-7.174-19.813-20.124-23.352-38.479-2.606-13.455-2.878-29.457-.797-47.54l-.603-.078c-2.081 18.161-1.808 34.202.797 47.735 3.597 18.53 11.55 31.615 23.644 38.887zM72.212 157.659l.33-.506c-21.815-14.699-49.484-14.369-68.85-11.491l.097.603c19.25-2.859 46.763-3.189 68.423 11.394zm-32.51-50.71l.583-.155c-7.777-28.602 3.928-57.437 11.589-72.078l-.544-.292c-7.7 14.738-19.464 43.73-11.628 72.525z" fill="#FCFDFE"/><defs><linearGradient id="paint0_linear_39_3291" x1="162.838" y1="20.663" x2="85.311" y2="516.283" gradientUnits="userSpaceOnUse"><stop offset=".004" stop-color="#C37A87"/><stop offset="1" stop-color="#9571F6"/></linearGradient><linearGradient id="paint1_linear_39_3291" x1="114.263" y1="58.26" x2="55.208" y2="435.791" gradientUnits="userSpaceOnUse"><stop stop-color="#FF9085"/><stop offset="1" stop-color="#FB6FBB"/></linearGradient></defs></svg>