<svg width="209" height="280" fill="none" xmlns="http://www.w3.org/2000/svg"><path d="M45.6 279.094c-2.819.486-9.371-.972-10.927-2.042C24.35 269.858 4.127 257.647.997 244.717c-.525-2.216 8.555-7.174 9.294-9.585 5.016-4.57 7.039-5.853 9.683-12.542 7.777-19.774-30.157-40.851.175-61.578 22.224-15.186 45.537-13.066 31.266-50.379C37.123 73.301 46.165-5.407 94.54 8.903c27.766 8.205 14.213 47.793 33.404 68.092 18.239 19.288 14.311 40.929-5.677 61.948s-3.889 27.552 9.722 47.015c16.352 23.372-22.166 40.152-40.599 46.374-14.816 4.977-49.251 27.765-45.79 46.762z" fill="url(#paint0_linear_39_3314)"/><path d="M18.516 261.847l-.409-.447C86.607 197.624 109.863 100.094 80.27.542l.584-.175c14.019 47.19 16.196 95.76 6.319 140.482-10.403 47.034-34.144 88.877-68.656 120.998z" fill="#FCFDFE"/><path d="M139.923 194.844c-25.588-.525-64.573 11.141-86.895 26.016l-.33-.506c22.4-14.933 61.539-26.657 87.244-26.113l-.019.603zM31.835 249.189l-.525-.311c7.174-11.958 8.03-27.085 2.527-44.934-4.024-13.105-11.316-27.338-21.64-42.349l.505-.35c10.364 15.05 17.674 29.341 21.719 42.504 5.541 18.044 4.666 33.327-2.586 45.44zm56.503-114.737l-.544-.292c12.366-23.235 36.943-35.932 55.376-42.504l.194.564c-18.335 6.552-42.776 19.191-55.026 42.232zM93.2 74.429l-.584.136c-6.572-28.894-30.45-48.863-44.099-58.176l.35-.506C62.575 25.255 86.57 45.321 93.2 74.43z" fill="#FCFDFE"/><path d="M31.446 264.861c-2.703-.894-7.817-5.25-8.672-6.941-5.736-11.2-17.85-31.48-14.525-44.371.564-2.197 10.928-2.333 12.716-4.103 6.592-1.672 8.964-1.847 14.447-6.533 16.158-13.785-7.427-50.223 29.088-54.287 26.755-2.975 46.335 9.878 51.273-29.788 4.939-39.665 49.893-104.899 85.884-69.53 20.649 20.298-9.917 48.861-2.509 75.791 7.039 25.588-6.591 42.854-34.104 52.012-27.513 9.158-16.372 22.497-13.513 46.082 3.441 28.31-38.421 25.024-57.632 21.874-15.477-2.547-56.581 1.4-62.453 19.794z" fill="url(#paint1_linear_39_3314)"/><path d="M15.638 236.921l-.156-.584c90.453-24.11 156.795-99.28 177.464-201.049l.603.117c-9.8 48.24-30.702 92.144-60.451 126.987-31.285 36.613-71.884 62.396-117.46 74.529z" fill="#FCFDFE"/><path d="M154.292 234.821c-22.341-12.503-62.24-20.514-88.936-17.869l-.059-.603c26.794-2.664 66.848 5.386 89.286 17.947l-.291.525zm-120.96-2.82l-.311-.525c11.938-7.174 19.813-20.124 23.352-38.479 2.605-13.455 2.877-29.457.797-47.54l.603-.078c2.08 18.161 1.808 34.202-.798 47.735-3.577 18.51-11.53 31.596-23.643 38.887zm103.791-74.722l-.331-.506c21.816-14.699 49.485-14.369 68.851-11.491l-.098.603c-19.249-2.859-46.762-3.209-68.422 11.394zm32.51-50.71l-.584-.155c7.778-28.602-3.927-57.437-11.588-72.078l.544-.292c7.7 14.719 19.444 43.71 11.628 72.525z" fill="#FCFDFE"/><defs><linearGradient id="paint0_linear_39_3314" x1="98.832" y1="17.212" x2="17.696" y2="535.91" gradientUnits="userSpaceOnUse"><stop offset=".004" stop-color="#C37A87"/><stop offset="1" stop-color="#9571F6"/></linearGradient><linearGradient id="paint1_linear_39_3314" x1="126.366" y1="37.791" x2="53.86" y2="501.313" gradientUnits="userSpaceOnUse"><stop stop-color="#FF9085"/><stop offset="1" stop-color="#FB6FBB"/></linearGradient></defs></svg>