<svg width="176" height="161" fill="none" xmlns="http://www.w3.org/2000/svg"><path d="M99.62 86.43c-6.124-9.82-19.327-27.435-42.134-35.777-9.703-3.539-25.102-9.177-36.846-.972C9.46 57.497 9.207 72.527 9.207 74.044c-.02 12.677 7.738 24.616 20.027 31.013 2.139-2.392 4.258-4.803 6.397-7.194-5.561-10.694-5.872-19.97-2.761-21.836 2.994-1.808 10.538 2.45 17.208 10.986 16.507-.214 33.035-.408 49.542-.583z" fill="url(#paint0_linear_39_3410)"/><path opacity=".3" d="M21.32 85.866c-2.12-4.706-6.125-4.803-8.166-9.994-2.372-6.047-.272-14.389 4.083-16.333 3.247-1.458 5.055 2.372 10.422 1.4 6.903-1.244 8.594-6.378 14.077-6.766 3.558-.253 4.647 1.788 13.378 7.466 10.285 6.708 17.343 11.18 22.243 8.866 1.206-.563 2.975-1.886 4.278-5.424C90.268 72.605 96.1 80.79 99.62 86.41l-49.562.583C43.388 78.477 35.845 74.2 32.85 76.008c-3.091 1.867-2.8 11.141 2.761 21.835-2.138 2.392-4.258 4.803-6.397 7.195a40.137 40.137 0 01-8.691-6.125c2.333-5.697 2.217-9.897.797-13.047z" fill="url(#paint1_linear_39_3410)"/><path d="M9.207 148.3s-1.633 6.222-3.675 9.858-4.53 3.189-4.608 0c-.078-3.189 5.833-11.822 5.833-11.822l2.45 1.964z" fill="url(#paint2_linear_39_3410)"/><path d="M115.953 94.421C94.759 76.3 71.446 77.894 71.446 77.894c-16.43 1.128-27.804 9.06-33.23 12.95-25.354 18.179-31.75 46.762-33.384 55.648a5.256 5.256 0 002.333 2.177 5.301 5.301 0 003.578.389c3.053-5.794 14.077-24.946 37.954-35.154 20.066-8.575 38.052-6.067 44.954-4.744 4.025 1.536 10.13 3.052 17.033 1.574 2.489-.525 10.363-2.236 11.316-6.708.545-2.508-1.205-5.483-6.047-9.605z" fill="url(#paint3_linear_39_3410)"/><path d="M171.154 45.228c-2.022-4.005-10.927-20.493-30.799-27.61-16.974-6.066-31.538-1.575-37.624.292-6.747 2.08-19.307 5.95-26.968 17.733-.584.894-10.325 16.196-4.239 22.788 4.025 4.375 14.155 3.986 23.663-2.372-.583 2.236-1.73 5.463-4.2 8.574-3.325 4.18-6.008 4.336-6.474 6.767-.623 3.305 3.83 5.658 11.646 13.144 6.747 6.475 5.775 6.98 11.88 12.658 8.128 7.583 12.036 11.53 15.031 11.646 11.802.428 21.932-40.054 23.663-47.131 8.147-5.483 16.294-10.986 24.421-16.489z" fill="url(#paint4_linear_39_3410)"/><path d="M91.454 44.431c-1.205 5.522-3.655 9.139-5.23 11.064-2.14 2.625-4.434 5.444-7.875 5.522-2.761.058-5.93-1.672-6.689-3.947-1.36-4.025 4.492-10.5 14.583-16.353a863.93 863.93 0 015.211 3.714z" fill="url(#paint5_linear_39_3410)"/><path opacity=".3" d="M76.521 54.6c1.983-1.089 1.38-3.558 3.52-6.766 4.763-7.097 17.382-9.139 19.988-5.639 1.652 2.197-.642 6.63-2.684 10.558a32.906 32.906 0 01-2.255 3.714l.117-.408c-9.508 6.358-19.639 6.727-23.663 2.372-1.323-1.44-1.906-3.286-1.984-5.328 2.761 1.692 5.25 2.45 6.961 1.497z" fill="url(#paint6_linear_39_3410)"/><path d="M112.667 33.426l-27.377-.68a1.538 1.538 0 00-1.516 1.944l3.713 13.416c.175.622.7 1.07 1.342 1.108l25.044 2.217c.952.078 1.75-.72 1.652-1.672l-1.38-14.952c-.058-.759-.7-1.361-1.478-1.38z" fill="#fff"/><path d="M87.001 46.356s-1.827-.447-2.488-2.178c-.35-.933-.506-2.391-.564-3.558a2.046 2.046 0 011.71-2.12l3.656-.621c.817-.136 1.517.641 1.245 1.438-.195.564-.564 1.187-1.264 1.77-1.847 1.555-2.722 2.547-2.722 2.547L87 46.356z" fill="url(#paint7_linear_39_3410)"/><path opacity=".3" d="M122.72 86.43c-.098-5.95-10.656-7.914-12.95-18.316-.992-4.511-.467-10.792 2.819-12.678 4.2-2.391 9.314 4.434 15.206 2.256 5.191-1.925 4.141-8.322 8.458-10.13 4.997-2.12 11.394 4.744 17.207 9.644-2.236 1.516-4.472 3.013-6.688 4.53-1.731 7.078-11.842 47.56-23.663 47.132-2.82-.097-6.495-3.656-13.786-10.5 10.733-4.86 13.436-8.886 13.397-11.938z" fill="url(#paint8_linear_39_3410)"/><path d="M164.815 38.268c4.861-.37 16.255 22.477 7.195 39.373-1.225 2.275-3.889 7.272-9.45 9.78-13.105 5.911-32.432-6.494-40.56-21.407-3.714-6.805-4.666-13.358-4.919-17.46 1.05-1.323 2.1-2.626 3.15-3.948 3.052 3.247 9.022 8.575 18.005 11.103 4.686 1.302 10.577 2.955 15.73.31 8.847-4.55 7.252-17.48 10.849-17.751z" fill="url(#paint9_linear_39_3410)"/><path d="M120.756 8.752s4.297 6.61 5.852 7.116c1.556.506 10.345 1.984 10.364 2.43.019.448-4.861 1.517-10.772 1.926-5.911.408-10.791-2.042-11.724-2.703-.953-.661 2.274-2.022 3.752-1.867 1.478.156.175-4.452.175-4.452l2.353-2.45z" fill="url(#paint10_linear_39_3410)"/><path d="M91.396 45.987c1.886-1.03 3.48.194 5.638-.934 1.867-.972 1.517-2.352 3.189-4.122 3.228-3.441 7.408-1.4 10.325-4.316.622-.623 1.322-1.595 1.711-3.19l.389.02c.778.02 1.419.623 1.478 1.4l1.38 14.953c.097.952-.7 1.75-1.653 1.672l-24.81-2.197c.642-1.945 1.556-2.84 2.353-3.286z" fill="url(#paint11_linear_39_3410)"/><path d="M119.55 45.481a10.073 10.073 0 00-1.652-3.208c-2.042-2.625-5.561-4.297-6.456-3.48-.408.369-.428 1.438 1.167 4.472.855.213 1.983.622 2.916 1.555 1.342 1.342 1.439 2.878 2.178 2.936.408.039 1.011-.35 1.847-2.275z" fill="url(#paint12_linear_39_3410)"/><path d="M112.551 10.638c-1.964-.914-3.286-4.122-2.314-6.533.719-1.79 2.45-2.528 3.694-3.053.583-.253 4.686-1.944 7.33.175.836.661 1.498 1.867 1.692 2.994.097.584.117 1.38.019 2.975-.097 1.42-.058 1.361-.097 1.77-.097 1.01-.369 2.76-1.341 5.21a12.875 12.875 0 00-1.634-1.496c-.252-.195-1.302-.992-2.469-1.459-2.392-.972-3.344.136-4.88-.583z" fill="url(#paint13_linear_39_3410)"/><path d="M123.05 11.455s-.175 3.908-3.869 5.619c-3.306 1.536-7.68-5.347-6.475-7.992.408-.875 1.653-1.827 2.917-2.119.758-.175 1.127-.02 2.352-.33 1.128-.292 1.342-.545 1.789-.467.545.117 1.245.739 1.77 3.17.272-.954.875-1.576 1.516-1.615.097 0 .409.02.642.175.894.584.719 2.022-.642 3.559z" fill="url(#paint14_linear_39_3410)"/><path d="M121.125 7.177s.331 3.208 0 4.239c-.33 1.03-1.691 2.45-3.791 2.663-2.12.214-3.5 0-3.5 0s1.575 3.675 2.236 3.83c.661.137 4.686-.057 5.425-.738.739-.68 1.633-3.636 1.419-4.958-.214-1.303-1.419-4.278-1.419-4.278l-.37-.758z" fill="url(#paint15_linear_39_3410)"/><defs><linearGradient id="paint0_linear_39_3410" x1="89.574" y1="58.563" x2="29.421" y2="63.037" gradientUnits="userSpaceOnUse"><stop stop-color="#4499D9"/><stop offset="1" stop-color="#6E6CC1"/></linearGradient><linearGradient id="paint1_linear_39_3410" x1="38.554" y1="33.589" x2="51.791" y2="69.921" gradientUnits="userSpaceOnUse"><stop stop-color="#AA80F9"/><stop offset=".996" stop-color="#6165D7"/></linearGradient><linearGradient id="paint2_linear_39_3410" x1="9.208" y1="153.524" x2=".928" y2="153.524" gradientUnits="userSpaceOnUse"><stop stop-color="#311944"/><stop offset="1" stop-color="#6B3976"/></linearGradient><linearGradient id="paint3_linear_39_3410" x1="109.067" y1="93.555" x2="31.124" y2="99.837" gradientUnits="userSpaceOnUse"><stop stop-color="#4499D9"/><stop offset="1" stop-color="#6E6CC1"/></linearGradient><linearGradient id="paint4_linear_39_3410" x1="111.965" y1="18.711" x2="135.624" y2="106.022" gradientUnits="userSpaceOnUse"><stop stop-color="#893976"/><stop offset="1" stop-color="#311944"/></linearGradient><linearGradient id="paint5_linear_39_3410" x1="75.342" y1="27.828" x2="100.161" y2="119.421" gradientUnits="userSpaceOnUse"><stop stop-color="#893976"/><stop offset="1" stop-color="#311944"/></linearGradient><linearGradient id="paint6_linear_39_3410" x1="79.307" y1="27.56" x2="102.966" y2="114.871" gradientUnits="userSpaceOnUse"><stop stop-color="#893976"/><stop offset="1" stop-color="#311944"/></linearGradient><linearGradient id="paint7_linear_39_3410" x1="87.291" y1="38.734" x2="87.479" y2="70.092" gradientUnits="userSpaceOnUse"><stop stop-color="#FFC444"/><stop offset=".996" stop-color="#F36F56"/></linearGradient><linearGradient id="paint8_linear_39_3410" x1="115.127" y1="17.854" x2="138.785" y2="105.165" gradientUnits="userSpaceOnUse"><stop stop-color="#893976"/><stop offset="1" stop-color="#311944"/></linearGradient><linearGradient id="paint9_linear_39_3410" x1="133.055" y1="39.186" x2="160.375" y2="72.421" gradientUnits="userSpaceOnUse"><stop stop-color="#893976"/><stop offset="1" stop-color="#311944"/></linearGradient><linearGradient id="paint10_linear_39_3410" x1="136.968" y1="14.507" x2="114.286" y2="14.507" gradientUnits="userSpaceOnUse"><stop stop-color="#FFC444"/><stop offset=".996" stop-color="#F36F56"/></linearGradient><linearGradient id="paint11_linear_39_3410" x1="115.538" y1="42.428" x2="89.057" y2="42.428" gradientUnits="userSpaceOnUse"><stop offset=".494" stop-color="#EBEFF2"/><stop offset="1" stop-color="#fff"/></linearGradient><linearGradient id="paint12_linear_39_3410" x1="115.355" y1="38.56" x2="115.543" y2="69.917" gradientUnits="userSpaceOnUse"><stop stop-color="#FFC444"/><stop offset=".996" stop-color="#F36F56"/></linearGradient><linearGradient id="paint13_linear_39_3410" x1="132.577" y1="19.159" x2="113.142" y2="2.839" gradientUnits="userSpaceOnUse"><stop stop-color="#311944"/><stop offset="1" stop-color="#6B3976"/></linearGradient><linearGradient id="paint14_linear_39_3410" x1="117.419" y1="8.058" x2="132.163" y2="38.705" gradientUnits="userSpaceOnUse"><stop stop-color="#FFC444"/><stop offset=".996" stop-color="#F36F56"/></linearGradient><linearGradient id="paint15_linear_39_3410" x1="113.461" y1="26.541" x2="120.634" y2="8.322" gradientUnits="userSpaceOnUse"><stop stop-color="#311944"/><stop offset="1" stop-color="#6B3976"/></linearGradient></defs></svg>