<svg width="123" height="234" fill="none" xmlns="http://www.w3.org/2000/svg"><path d="M67.309 90.637c10.033-4.9 29.593 12.833 39.101 29.827 3.792 6.767 8.245 14.719 7.156 24.169-1.945 16.76-20.513 31.44-46.102 36.36-.719-2.567-1.438-5.153-2.158-7.719a238.68 238.68 0 0112.328-11.939c8.205-7.408 9.897-7.894 10.285-10.227 1.284-7.661-18.393-14.058-25.393-27.513-6.028-11.589-2.917-29.205 4.783-32.958z" fill="url(#paint0_linear_39_3384)"/><path d="M80.473 225.286s-1.653 4.063-.836 5.658c.816 1.594 4.763.583 10.344 1.439 5.56.855 9.41 2.158 9.722.991.311-1.147-11.239-7.252-12.153-8.088-.914-.836-7.077 0-7.077 0z" fill="url(#paint1_linear_39_3384)"/><path d="M81.95 219.219l3.89 6.067s-1.79 1.769-4.842 1.108l-4.278-5.755 5.23-1.42z" fill="url(#paint2_linear_39_3384)"/><path opacity=".3" d="M62.526 123.575c-6.028-11.569-2.917-29.185 4.783-32.957 2.022-.992 4.433-1.05 7.058-.389-1.38 4.005-1.108 6.903-.428 8.944 3.053 9.139 16.256 8.108 20.378 18.511 2.605 6.572-1.536 9.838 2.158 15.127 3.83 5.464 10.091 4.55 12.036 9.877 1.438 3.967-1.4 6.222-.312 9.567.312.933.914 1.866 1.906 2.761-6.786 12.191-22.555 22.088-42.66 25.957-.72-2.566-1.438-5.152-2.158-7.719 2.8-2.916 6.98-7.116 12.327-11.938 8.206-7.408 9.897-7.895 10.286-10.228 1.303-7.641-18.374-14.038-25.374-27.513z" fill="url(#paint3_linear_39_3384)"/><path d="M74.153 94.254a644.832 644.832 0 001.089 56.679 645.364 645.364 0 008.38 70.717l-4.958 1.575c-16.974-16.528-22.05-31.072-23.43-41.532-.991-7.389.506-8.031-.816-17.286-2.528-17.616-9.12-23.663-13.747-40.151-1.73-6.183-3.675-15.555-3.539-27.747 12.328-.739 24.674-1.497 37.021-2.255z" fill="url(#paint4_linear_39_3384)"/><path d="M86.306 62.852c-.311.078-1.653.525-2.178 6.105-1.283 13.475 5.736 18.92 4.005 26.23-1.652 7.019-10.11 10.422-18.821 13.922-5.814 2.333-23.8 9.586-34.26 1.439-4.395-3.422-4.88-7.564-8.03-22.769-7.973-38.635-11.064-41.94-7.72-50.301 5.756-14.369 21.194-20.3 23.76-21.291 27.377-10.558 59.712 8.847 72.487 31.11 1.692 2.936 11.725 20.455 4.667 28.758-4.278 5.035-14.078 5.833-20.553 2.41-8.633-4.588-10.48-16.274-13.357-15.613z" fill="url(#paint5_linear_39_3384)"/><path d="M116.23 73.06c.077 0 .175-.02.252-.058a.62.62 0 00.312-.817c-.234-.505-5.892-12.638-18.939-17.421a.62.62 0 00-.797.37.62.62 0 00.37.796c12.56 4.608 18.199 16.664 18.238 16.78.097.234.33.35.564.35z" fill="url(#paint6_linear_39_3384)"/><path opacity=".3" d="M37.21 32.54c1.73 4.705-3.461 8.788-1.225 13.882 3.189 7.311 15.847 3.558 20.377 10.81 5.366 8.576-6.922 22.653-1.847 27.475 2.314 2.197 4.977-.622 11.725.933 9.605 2.197 12.502 9.8 16.974 8.633 1.4-.37 3.11-1.633 4.55-5.56.622 2.177.914 4.258.389 6.494-1.653 7.019-10.111 10.421-18.822 13.921-5.814 2.334-23.8 9.586-34.26 1.439-4.394-3.422-4.88-7.563-8.03-22.768-7.972-38.635-11.064-41.94-7.72-50.302 1.828-4.55 4.628-8.263 7.7-11.238 6.572 1.439 9.294 3.81 10.189 6.28z" fill="url(#paint7_linear_39_3384)"/><path d="M53.757 62.055c-.74.68-8.225 7.272-17.247 5.016-7.855-1.963-12.658-9.585-13.513-16.002-2.003-15.263 17.888-28.077 15.438-31.168-1.458-1.847-9.294 1.73-14.505 4.939C18.525 28.184 3.883 37.186.772 54.88.5 56.377-2.94 77.474 9.114 86.185c11.141 8.05 32.938 3.674 47.715-15.38a1560.807 1560.807 0 00-3.072-8.75z" fill="url(#paint8_linear_39_3384)"/><path d="M102.055 48.094L93.13 76.58a2.315 2.315 0 01-2.119 1.614l-47.987 1.692a2.302 2.302 0 01-2.334-2.8l6.203-28.582c.233-1.03 1.128-1.79 2.178-1.809l50.71-1.575c1.593-.058 2.76 1.478 2.274 2.975z" fill="#D8DEE8"/><path d="M101.627 49.047l-8.652 27.65a2.25 2.25 0 01-2.061 1.574l-46.588 1.653c-1.458.058-2.586-1.284-2.275-2.722l6.028-27.766a2.24 2.24 0 012.12-1.77l49.212-1.535c1.555-.04 2.683 1.438 2.216 2.916z" fill="url(#paint9_linear_39_3384)"/><path d="M42.07 77.182l5.756-26.502c.972 2.314 2.236 3.48 3.442 4.064 3.46 1.711 6.163-1.38 13.727-1.089 2.897.117 8.808.35 12.502 4.161 3.462 3.597 1.984 7.292 4.162 12.347 1.088 2.547 3.13 5.444 7.058 8.147l-44.371 1.575c-1.458.078-2.586-1.264-2.275-2.703z" fill="url(#paint10_linear_39_3384)"/><path d="M71.295 13.426c-.505 1.789.564 3.655 2.372 4.083 2.197.525 4.861 1.264 6.008 1.925 2.12 1.206-6.455-.194-14.33-.37-4.919-.116-8.594-.66-10.655-1.069a.54.54 0 01-.058-1.05c1.964-.641 5.172-1.575 7.875-1.925 3.344-.427 6.94-7.816 6.94-7.816l2.879 2.606-1.03 3.616z" fill="url(#paint11_linear_39_3384)"/><path d="M99.82 57.175l-.545-.895a3.816 3.816 0 00-4.161-2.82l-2.859.35a1.549 1.549 0 00-1.322 1.848c.272 1.283.953 2.8 2.703 2.683 2.994-.194 4.9 4.161 4.9 4.161l1.147-1.614a3.388 3.388 0 00.136-3.713z" fill="url(#paint12_linear_39_3384)"/><path d="M77.692 9.654c2.47-.37 5.25-2.45 5.192-4.161-.078-2.372-5.484-3.655-8.206-4.317-2.741-.66-3.888-.427-4.686.175-.797.603-1.322 1.692-1.497 2.645-.097.505-.097 1.225-.02 2.625.079 1.244.06 1.186.079 1.555.077.895.31 2.45 1.186 4.589.35-.389.836-.856 1.439-1.322.233-.175 1.147-.875 2.177-1.284 1.828-.719 2.839-.291 4.336-.505z" fill="url(#paint13_linear_39_3384)"/><path d="M68.456 10.354s.156 3.442 3.403 4.958c2.917 1.361 6.767-4.725 5.717-7.039-.35-.777-1.459-1.613-2.567-1.866-.661-.156-.992-.02-2.061-.292-.992-.253-1.186-.486-1.575-.408-.486.097-1.089.642-1.556 2.78-.233-.836-.777-1.4-1.341-1.438-.097 0-.35.019-.584.155-.797.525-.641 1.808.564 3.15z" fill="url(#paint14_linear_39_3384)"/><defs><linearGradient id="paint0_linear_39_3384" x1="113.732" y1="135.397" x2="59.356" y2="135.397" gradientUnits="userSpaceOnUse"><stop stop-color="#4499D9"/><stop offset=".996" stop-color="#6E6CC1"/></linearGradient><linearGradient id="paint1_linear_39_3384" x1="99.72" y1="229.374" x2="79.424" y2="229.374" gradientUnits="userSpaceOnUse"><stop stop-color="#311944"/><stop offset="1" stop-color="#6B3976"/></linearGradient><linearGradient id="paint2_linear_39_3384" x1="76.627" y1="193.808" x2="83.726" y2="238.252" gradientUnits="userSpaceOnUse"><stop stop-color="#311944"/><stop offset="1" stop-color="#A03976"/></linearGradient><linearGradient id="paint3_linear_39_3384" x1="113.732" y1="135.401" x2="59.356" y2="135.401" gradientUnits="userSpaceOnUse"><stop stop-color="#AA80F9"/><stop offset=".996" stop-color="#6165D7"/></linearGradient><linearGradient id="paint4_linear_39_3384" x1="74" y1="137" x2="51" y2="189" gradientUnits="userSpaceOnUse"><stop stop-color="#4499D9"/><stop offset=".996" stop-color="#6E6CC1"/></linearGradient><linearGradient id="paint5_linear_39_3384" x1="53.623" y1="2.371" x2="87.368" y2="122.533" gradientUnits="userSpaceOnUse"><stop stop-color="#FFC444"/><stop offset=".996" stop-color="#F36F56"/></linearGradient><linearGradient id="paint6_linear_39_3384" x1="107.757" y1="61.205" x2="101.893" y2="80.238" gradientUnits="userSpaceOnUse"><stop stop-color="#FFC444"/><stop offset=".996" stop-color="#F36F56"/></linearGradient><linearGradient id="paint7_linear_39_3384" x1="34.338" y1="7.786" x2="68.082" y2="127.949" gradientUnits="userSpaceOnUse"><stop stop-color="#FFC444"/><stop offset=".996" stop-color="#F36F56"/></linearGradient><linearGradient id="paint8_linear_39_3384" x1="12.685" y1="13.867" x2="46.43" y2="134.029" gradientUnits="userSpaceOnUse"><stop stop-color="#FFC444"/><stop offset=".996" stop-color="#F36F56"/></linearGradient><linearGradient id="paint9_linear_39_3384" x1="77.688" y1="50.109" x2="57.318" y2="86.837" gradientUnits="userSpaceOnUse"><stop offset=".494" stop-color="#EBEFF2"/><stop offset="1" stop-color="#fff"/></linearGradient><linearGradient id="paint10_linear_39_3384" x1="45.309" y1="89.17" x2="68.971" y2="63.759" gradientUnits="userSpaceOnUse"><stop offset=".494" stop-color="#EBEFF2"/><stop offset="1" stop-color="#fff"/></linearGradient><linearGradient id="paint11_linear_39_3384" x1="63.956" y1="-8.565" x2="67.865" y2="24.768" gradientUnits="userSpaceOnUse"><stop stop-color="#311944"/><stop offset="1" stop-color="#A03976"/></linearGradient><linearGradient id="paint12_linear_39_3384" x1="100.305" y1="57.972" x2="90.897" y2="57.972" gradientUnits="userSpaceOnUse"><stop stop-color="#311944"/><stop offset="1" stop-color="#A03976"/></linearGradient><linearGradient id="paint13_linear_39_3384" x1="59.441" y1="18.299" x2="78.578" y2="2.23" gradientUnits="userSpaceOnUse"><stop stop-color="#AA80F9"/><stop offset=".996" stop-color="#6165D7"/></linearGradient><linearGradient id="paint14_linear_39_3384" x1="67.49" y1="-4.06" x2="71.194" y2="5.199" gradientUnits="userSpaceOnUse"><stop stop-color="#311944"/><stop offset="1" stop-color="#A03976"/></linearGradient></defs></svg>