<svg width="289" height="390" fill="none" xmlns="http://www.w3.org/2000/svg"><path d="M.216 4.728L282.64 167.124v222.36L.216 227.089V4.728z" fill="#826F8C" fill-opacity=".9"/><path d="M288.964 163.39l-6.323 3.733v222.361l6.323-3.733V163.39z" fill="#446381"/><path d="M276.786 171.09v132.063L5.602 147.058V15.228L276.786 171.09z" fill="#506898"/><path d="M109.345 206.789l66.976 38.499 21.311 87.964-136.06-78.398 47.773-48.065z" fill="#786D8A"/><path d="M28.552 69.826c0-5.833 3.747-8.633 8.196-6.066.937.7 2.108 1.4 3.045 2.333 1.873-2.8 5.152-3.5 8.899-1.4 4.45 2.567 7.962 8.166 9.601 14 1.405-.934 3.279-.934 5.386.466 3.045 1.867 5.855 5.6 7.26 9.567.937 0 1.874.233 3.044.7 3.045 1.633 5.62 5.833 6.323 9.8l-51.754-29.4zm231.139 133.23c-.234-7.233-4.45-15.633-9.836-18.666-1.171-.7-2.342-1.167-3.513-1.167-2.341-5.833-6.088-11.199-10.538-13.766-5.152-3.033-9.601-1.4-11.709 3.5-1.639-3.033-3.981-5.6-6.557-7-3.747-2.1-6.791-1.4-8.665 1.633-1.171-1.4-2.342-2.566-3.747-3.266-3.513-2.1-6.557-.7-7.494 3.033l62.059 35.699zM82.414 113.459c.468-3.5 2.81-5.134 5.855-3.267 1.405.7 2.576 2.1 3.746 3.733 1.171-2.333 3.747-3.033 6.323-1.4 3.279 1.867 6.089 6.3 7.026 10.733.702-.233 1.873 0 2.81.467 2.108 1.167 3.981 4.2 4.684 7.233l-30.444-17.499zm96.484 73.264c.468-3.266 2.576-4.666 5.386-3.033 1.171.7 2.342 2.1 3.278 3.5 1.171-2.1 3.279-2.8 5.855-1.4 3.044 1.633 5.62 5.833 6.323 9.8.703-.234 1.639 0 2.576.466 2.108 1.167 3.747 3.967 4.45 6.533l-27.868-15.866zM16.608 98.292c.469-3.266 2.577-4.666 5.387-3.033 1.17.7 2.342 2.1 3.278 3.5 1.171-2.1 3.279-2.8 5.855-1.4 3.044 1.633 5.62 5.833 6.323 9.8.702-.233 1.64 0 2.576.467 2.108 1.166 3.747 3.966 4.45 6.533L16.608 98.292zm144.023 64.632c.469-3.267 2.576-4.667 5.387-3.033 1.171.7 2.341 2.099 3.278 3.499 1.171-2.1 3.279-2.8 5.855-1.4 3.044 1.634 5.62 5.834 6.323 9.8.702-.233 1.639 0 2.576.467 2.107 1.166 3.747 3.966 4.449 6.533l-27.868-15.866z" fill="#fff"/><path d="M198.569 224.522c.937-3.733 4.215-.933 7.026.7-1.64-5.133-.469-10.266 3.512-7.466 0-2.334.703-4.667 2.576-3.967.469 0 .703.233 1.171.7-.468-2.1-.234-3.966.703-5.133 2.576-2.567 6.557 1.633 7.728 6.533 3.044-.467 7.26.7 9.133 6.3 5.152-.933 10.304 10.733 7.962 14.466 3.279 2.567 5.152 9.333 2.342 10.267 5.386 7.466 5.152 17.732-.702 18.199.702 7.233-4.684 10.033-9.368 2.8-.702.233-1.171.467-1.873.467-.703 3.733-1.405 8.399-1.405 12.133-.234 6.766 0 15.166 0 23.099 0 6.767.936 16.1 1.171 18.666l-11.241-6.533c.702-1.633 2.342-6.766 2.81-11.9.468-6.066.703-22.632-1.171-27.066-1.873-4.199-7.26-12.366-8.899-18.432-.702-2.334-1.171-4.667-1.405-6.534-4.449-3.033-8.899-10.499-5.855-15.866-2.576-3.033-4.917-7.933-4.215-11.433zm13.583 35.699c2.81 5.133 8.196 13.767 8.196 13.767s0-6.067.469-11.2c-.235-.467-.235-.933-.469-1.167-1.873.234-3.981-1.633-5.854-4.666-.703-.934-1.405-2.1-1.874-3.267-.702.233-1.639.233-2.342-.233.235 1.866.703 4.433 1.874 6.766zM90.845 151.957c-.937-4.9-4.216-5.833-7.026-7.233 1.64-3.267.468-9.8-3.513-11.433 0-2.333-.702-5.367-2.576-7-.468-.233-.702-.466-1.17-.466.468-1.4.234-3.734-.703-6.067-2.576-5.367-6.557-5.833-7.728-2.333-3.044-3.967-7.26-7.7-9.133-4.2-5.152-7-10.304-1.167-7.963 5.366-3.278-1.4-5.151 3.5-2.341 7.7-5.386 1.167-5.152 11.667.702 19.133-.702 6.533 4.684 15.4 9.367 13.766.703.934 1.171 1.867 1.874 2.8.703 4.433 1.405 10.033 1.405 13.766.234 7 0 15.167 0 23.1 0 6.766-.937 14.933-1.17 17.266l11.24 6.533c-.703-2.333-2.342-9.566-2.81-15.166-.469-6.767-.703-23.566 1.17-25.433 1.874-1.866 7.26-4.2 8.9-8.166.702-1.633 1.17-3.267 1.405-4.667 4.45 2.1 8.899-.466 5.854-8.866 2.576-1.633 5.152-3.733 4.216-8.4zm-13.583 20.3c-2.81 2.1-8.196 4.199-8.196 4.199s0-6.066-.469-11.666c.234-.233.234-.467.469-.7 1.873 2.567 3.98 3.033 5.854 2.1.703-.233 1.405-.467 1.874-1.167.702.934 1.639 1.867 2.341 2.567-.234 1.867-.702 3.733-1.873 4.667z" fill="#EFC8C5"/><path d="M204.189 301.053c-.234-1.166 0-2.333.703-3.033 1.171-1.167 2.81-.467 4.215.933.234-1.633.703-3.033 1.873-2.8.937.234 1.874 1.167 2.811 2.334-.234-1.4 0-2.567.702-3.267.937-1.4 2.81-.933 4.45.233 1.639 1.167 2.81 3.5 3.512 5.834.469.233.937.7 1.64 1.166 1.171.7 2.107 1.4 3.044 2.567 1.405 1.867 1.874 3.966 1.639 5.833 1.874 1.167 3.982 3.033 4.918 6.067.937 3.5-.468 4.666-2.342 4.899.469 1.4.703 2.8.235 3.967-.703 2.8-3.279 1.867-5.387.467-1.639 2.1-5.152.233-7.493-3.034-1.874.934-5.855-1.4-7.494-5.366-1.405 1.4-3.513.933-5.621-1.633-2.342-2.8-2.342-5.834-1.405-7.7-.937-.933-1.639-2.567-1.873-3.967-.937-2.8.234-3.966 1.873-3.5zm-150.111-96.13c-.234-1.167 0-2.334.703-3.034 1.17-1.166 2.81-.466 4.215.934.234-1.634.702-3.033 1.873-2.8.937.233 1.874 1.166 2.81 2.333-.234-1.4 0-2.566.703-3.266.937-1.4 2.81-.934 4.45.233 1.639 1.167 2.81 3.5 3.512 5.833.469.233.937.7 1.64 1.167 1.17.7 2.107 1.4 3.044 2.566 1.405 1.867 1.873 3.967 1.64 5.833 1.873 1.167 3.98 3.034 4.917 6.067.937 3.5-.468 4.667-2.342 4.9.469 1.4.703 2.8.235 3.966-.703 2.8-3.28 1.867-5.387.467-1.64 2.1-5.152.233-7.494-3.033-1.873.933-5.854-1.4-7.493-5.367-1.406 1.4-3.513.934-5.62-1.633-2.343-2.8-2.343-5.833-1.406-7.7-.937-.933-1.64-2.566-1.873-3.966-.937-2.8.468-4.2 1.873-3.5zm-26.931-1.634c-.234-.7 0-1.633.468-1.867.703-.699 1.64-.233 2.576.7 0-.933.469-1.866 1.171-1.633.468 0 1.17.7 1.64 1.4-.235-.933 0-1.633.468-2.1.702-.933 1.639-.7 2.81.234.937.7 1.873 2.099 2.342 3.499.234.234.702.467 1.17.7.703.467 1.172.7 1.874 1.634a4.547 4.547 0 01.937 3.733c1.17.7 2.576 1.867 3.044 3.733.703 2.333-.234 3.033-1.405 3.033.234.7.468 1.634.234 2.334-.468 1.633-2.107 1.166-3.512.233-.937 1.167-3.28 0-4.684-1.867-1.171.467-3.747-.933-4.684-3.499-.937.933-2.342.699-3.513-.934-1.405-1.633-1.405-3.5-.936-4.9-.469-.7-.937-1.633-1.171-2.333-.469-1.633.234-2.567 1.17-2.1zm166.27 70.932c-.234-.7 0-1.634.469-1.867.702-.7 1.639-.233 2.576.7 0-.933.468-1.867 1.171-1.633.468 0 1.17.7 1.639 1.4-.234-.934 0-1.634.468-2.1.703-.934 1.639-.7 2.81.233.937.7 1.874 2.1 2.342 3.5.234.233.703.467 1.171.7.703.467 1.171.7 1.874 1.633.936 1.167 1.17 2.567.936 3.733 1.171.7 2.576 1.867 3.045 3.734.702 2.333-.234 3.033-1.405 3.033.234.7.468 1.633.234 2.333-.469 1.634-2.108 1.167-3.513.234-.937 1.166-3.279 0-4.684-1.867-1.171.467-3.747-.933-4.683-3.5-.937.933-2.342.7-3.513-.933-1.405-1.634-1.405-3.5-.937-4.9-.468-.7-.937-1.633-1.171-2.333-.702-1.867 0-2.567 1.171-2.1zM17.545 173.424c-.234-.934 0-1.867.469-2.334.936-.933 2.107-.233 3.278.934.234-1.167.469-2.334 1.64-2.334.702 0 1.639.934 2.107 1.867-.234-1.167 0-2.1.469-2.8.702-.933 2.107-.933 3.512.233 1.171.934 2.342 2.8 2.81 4.667.469.233.703.467 1.406.933.936.467 1.639.933 2.342 2.1.936 1.633 1.405 3.267 1.405 4.667 1.639.933 3.278 2.333 3.98 4.9.703 2.799-.468 3.733-1.873 3.966.469.933.469 2.1.234 3.033-.702 2.1-2.576 1.634-4.45.234-1.404 1.633-4.214.233-5.854-2.334-1.405.7-4.683-1.166-5.854-4.433-1.171 1.167-2.81.7-4.684-1.166-1.873-2.334-1.873-4.667-1.17-6.3-.703-.7-1.406-2.1-1.64-3.034-.234-2.333.702-3.266 1.873-2.799zm223.411 129.729c-.234-.933 0-1.866.469-2.333.936-.933 2.107-.233 3.278.933.234-1.166.469-2.333 1.639-2.333.703 0 1.64.933 2.108 1.867-.234-1.167 0-2.1.468-2.8.703-.934 2.108-.934 3.513.233 1.171.933 2.342 2.8 2.81 4.667.469.233.703.466 1.406.933.936.467 1.639.933 2.341 2.1.937 1.633 1.405 3.266 1.405 4.666 1.64.934 3.279 2.334 3.982 4.9.702 2.8-.469 3.733-1.874 3.967.468.933.468 2.1.234 3.033-.702 2.1-2.576 1.633-4.449.233-1.405 1.634-4.215.234-5.855-2.333-1.405.7-4.683-1.167-5.854-4.433-1.171 1.167-2.811.7-4.684-1.167-1.873-2.333-1.873-4.666-1.171-6.3-.702-.7-1.405-2.1-1.639-3.033-.234-2.333.702-3.266 1.873-2.8z" fill="#F5E2E1"/><path d="M138.618 238.522l4.918-12.366 2.108 1.166-2.342 13.767c-1.405-.7-3.045-1.634-4.684-2.567zm-6.323 15.4l5.152-12.833c1.64.933 3.513 1.866 5.386 2.8l-2.576 14.466c-2.576-1.4-5.152-3.033-7.962-4.433zm-7.025 17.032l6.088-14.699 8.431 4.9-3.513 16.566c-3.512-2.333-7.259-4.667-11.006-6.767zm10.538 10.733l-3.044 14.233-14.52-8.4 5.621-13.299c3.981 2.333 7.962 4.9 11.943 7.466z" fill="#fff"/><path d="M288.964 163.391l-6.323 3.733L.216 4.728 6.539.995 288.964 163.39z" fill="#826F8C"/></svg>