<svg width="20" height="18" fill="none" xmlns="http://www.w3.org/2000/svg"><path d="M17.947 4.926c.013.178.013.355.013.533A11.583 11.583 0 016.297 17.122 11.586 11.586 0 010 15.277c.329.037.66.054.99.052a8.21 8.21 0 005.09-1.751 4.106 4.106 0 01-3.834-2.84 4.34 4.34 0 001.845-.075A4.1 4.1 0 01.812 6.638v-.05a4.128 4.128 0 001.854.522 4.106 4.106 0 01-1.27-5.485 11.652 11.652 0 008.452 4.287 4.626 4.626 0 01-.1-.94 4.104 4.104 0 017.095-2.8 8.071 8.071 0 002.602-.99 4.089 4.089 0 01-1.803 2.258A8.219 8.219 0 0020 2.797a8.812 8.812 0 01-2.053 2.129z" fill="#446381"/></svg>