<svg width="84" height="84" fill="none" xmlns="http://www.w3.org/2000/svg"><path d="M17.161 62.378c-2.994 1.517-6.767.117-8.4-3.11-1.652-3.248-.544-7.117 2.45-8.634.156-.078.311-.136.467-.214a38.153 38.153 0 01-1.264-5.405c-.175 0-.35 0-.525-.02-3.422-.31-6.125-3.441-6.066-7.019.077-3.577 2.897-6.222 6.319-5.91.175.019.35.038.525.077.35-1.77.855-3.5 1.458-5.172l-.467-.291c-2.916-2.042-3.869-6.086-2.08-9.042 1.77-2.936 5.58-3.655 8.497-1.614.155.098.291.214.428.33a29.721 29.721 0 013.791-3.538 3.916 3.916 0 01-.272-.486c-1.653-3.247-3.792-6.786-.778-8.264 6.98-3.402 9.975-.486 11.628 2.761.077.175.155.33.233.506a30.572 30.572 0 015.094-.972c-.02-.175-.02-.37-.02-.545.078-3.577-.99-5.502 2.45-5.56 7.486-.137 10.014 3.11 9.936 6.669 0 .194-.02.369-.038.544a34.109 34.109 0 015.035 1.867 5.63 5.63 0 01.253-.467c1.77-2.936 5.58-3.655 8.497-1.614 2.917 2.042 3.87 6.086 2.08 9.042-.097.155-.194.291-.291.427a38.051 38.051 0 013.636 4.22c.136-.098.292-.175.447-.253 2.995-1.517 6.767-.117 8.4 3.11 1.653 3.248.544 7.117-2.45 8.634-.156.078-.311.136-.467.214a38.165 38.165 0 011.264 5.405c.175 0 .35 0 .525.02 3.422.31 6.125 3.441 6.067 7.019-.078 3.577-2.897 6.222-6.32 5.91a4.746 4.746 0 01-.525-.077c-.35 1.77-.855 3.5-1.458 5.172l.467.292c2.916 2.041 3.87 6.085 2.08 9.04-1.77 2.937-7.641 4.298-10.558 2.256-.155-.097 1.77-.855 1.634-.972a29.715 29.715 0 01-3.792 3.539c.097.156.194.311.272.486 1.653 3.247.545 7.117-2.45 8.633-2.994 1.517-6.766.117-8.4-3.11-.077-.176-.155-.331-.233-.506a30.569 30.569 0 01-5.094.972c.02.175.02.37.02.544-.078 3.578-2.898 6.222-6.32 5.911-3.422-.311-6.125-3.441-6.066-7.02 0-.194.02-.368.039-.543a34.12 34.12 0 01-5.036-1.867c-.078.155-.156.311-.253.466-1.77 2.937-5.58 3.656-8.497 1.614-2.917-2.041-3.87-6.085-2.08-9.041a8.11 8.11 0 01.291-.428 38.038 38.038 0 01-3.636-4.219c-.155.078-.291.155-.447.233zm37.352.486c10.888-5.522 14.855-19.56 8.866-31.324C57.39 19.758 43.72 14.683 32.852 20.205c-10.888 5.522-14.855 19.56-8.866 31.324 5.969 11.783 19.638 16.857 30.527 11.335z" fill="url(#paint0_linear_39_3402)"/><path d="M9.89 44.995c-3.423-.31-6.126-3.441-6.067-7.019.077-3.578 2.897-6.222 6.319-5.91.175.019.35.038.525.077.35-1.77.855-3.5 1.458-5.172l-.466-.292c-2.917-2.041-6.553-7-4.473-9.741 3.909-5.211 7.972-2.955 10.889-.894.155.097.292.213.428.33a29.715 29.715 0 013.791-3.539 3.903 3.903 0 01-.272-.486c-.894-1.77-.972-3.714-.389-5.366a944.55 944.55 0 018.341 14.99c-8.671 6.359-11.452 18.9-6.008 29.575 4.59 9.06 13.728 14.135 22.652 13.494.39 1.03.798 2.06 1.206 3.091 1.147 2.78 2.47 5.484 3.791 8.206-.836.155-1.652.272-2.488.37.02.174.02.369.02.544-.079 3.577-2.237 6.61-8.44 6.28-3.422-.175-4.024-3.811-3.947-7.389 0-.194.02-.37.04-.544a34.115 34.115 0 01-5.037-1.867 5.335 5.335 0 01-.252.467c-1.77 2.936-7.914 4.18-10.85 2.139-2.917-2.042-1.517-6.63.253-9.567.097-.155.194-.291.291-.427a38.04 38.04 0 01-3.636-4.22 3.326 3.326 0 01-.447.253c-2.994 1.517-6.766.117-8.4-3.11-1.652-3.248-.544-7.117 2.45-8.634.156-.078.311-.136.467-.214a38.182 38.182 0 01-1.264-5.405c-.136 0-.31 0-.486-.02z" fill="url(#paint1_linear_39_3402)"/><path d="M13.933 62.747c-2.994 1.517-6.766.117-8.4-3.11-1.652-3.248-.544-7.117 2.45-8.634.156-.077.312-.136.467-.214a38.164 38.164 0 01-1.264-5.405c-.175 0-.35 0-.525-.02-3.422-.31-6.124-3.44-6.066-7.018.078-3.578 2.897-6.222 6.32-5.911.174.019.35.038.524.077.35-1.769.856-3.5 1.458-5.172l-.466-.291c-2.917-2.042-3.87-6.086-2.08-9.042 1.769-2.936 5.58-3.655 8.496-1.614.156.098.292.214.428.331a29.715 29.715 0 013.792-3.539 3.916 3.916 0 01-.273-.486c-1.652-3.247-.544-7.116 2.45-8.633 2.995-1.517 6.767-.117 8.4 3.111.078.175.156.33.233.506a30.572 30.572 0 015.095-.973c-.02-.175-.02-.369-.02-.544.078-3.578 2.897-6.222 6.32-5.91 3.422.31 6.124 3.44 6.066 7.018 0 .195-.02.37-.039.545a34.113 34.113 0 015.036 1.866c.078-.155.155-.31.253-.466 1.77-2.936 5.58-3.656 8.497-1.614 2.916 2.041 3.869 6.086 2.08 9.041-.097.156-.194.292-.291.428a38.041 38.041 0 013.636 4.22c.136-.098.291-.176.447-.253 2.994-1.517 6.766-.117 8.4 3.11 1.652 3.248.544 7.117-2.45 8.634-.156.077-.312.136-.467.213a38.169 38.169 0 011.264 5.406c.175 0 .35 0 .525.02 3.422.31 6.124 3.44 6.066 7.019-.078 3.577-2.897 6.221-6.32 5.91-.174-.02-.35-.038-.524-.077-.35 1.769-.856 3.5-1.458 5.172l.466.291c2.917 2.042 3.87 6.086 2.08 9.042-1.769 2.936-5.58 3.655-8.496 1.613a3.476 3.476 0 01-.428-.33 29.714 29.714 0 01-3.791 3.539c.097.155.194.31.272.486 1.652 3.247.544 7.116-2.45 8.633-2.995 1.517-6.767.117-8.4-3.111-.078-.175-.156-.33-.233-.506a30.568 30.568 0 01-5.094.972c.019.175.019.37.019.545-.078 3.578-2.897 6.222-6.32 5.91-3.421-.31-6.124-3.44-6.066-7.018 0-.195.02-.37.04-.545a34.115 34.115 0 01-5.037-1.866 5.507 5.507 0 01-.253.466c-1.769 2.936-5.58 3.656-8.497 1.614-2.916-2.042-3.869-6.086-2.08-9.041.097-.156.194-.292.292-.428a38.05 38.05 0 01-3.636-4.22 5.168 5.168 0 01-.448.253zm37.352.486c10.889-5.521 14.855-19.56 8.866-31.323-5.988-11.783-19.657-16.858-30.526-11.336-10.889 5.522-14.855 19.56-8.867 31.324 5.97 11.783 19.638 16.858 30.527 11.335z" fill="url(#paint2_linear_39_3402)"/><defs><linearGradient id="paint0_linear_39_3402" x1="33.981" y1="-.144" x2="65.67" y2="136.042" gradientUnits="userSpaceOnUse"><stop stop-color="#444B8C"/><stop offset=".996" stop-color="#26264F"/></linearGradient><linearGradient id="paint1_linear_39_3402" x1="15.288" y1="4.206" x2="46.977" y2="140.392" gradientUnits="userSpaceOnUse"><stop stop-color="#444B8C"/><stop offset=".996" stop-color="#26264F"/></linearGradient><linearGradient id="paint2_linear_39_3402" x1="9.065" y1="81.68" x2="123.71" y2="-63.505" gradientUnits="userSpaceOnUse"><stop stop-color="#826F8C"/><stop offset=".996" stop-color="#446381"/></linearGradient></defs></svg>