<svg width="137" height="138" fill="none" xmlns="http://www.w3.org/2000/svg"><path d="M27.795 102.346c-4.9 2.489-11.083.195-13.767-5.114-2.702-5.308-.914-11.646 4.006-14.135.253-.136.505-.233.778-.35a62.855 62.855 0 01-2.062-8.867c-.272 0-.563 0-.855-.038-5.6-.506-10.052-5.64-9.936-11.492.117-5.852 4.745-10.188 10.344-9.683.292.02.584.078.875.117a57.05 57.05 0 012.392-8.477 16.375 16.375 0 01-.758-.487c-4.784-3.363-6.32-9.974-3.423-14.796 2.898-4.822 9.139-6.009 13.922-2.645.253.175.486.35.7.545a48.892 48.892 0 016.222-5.794 10.515 10.515 0 01-.447-.798C33.083 15.024 29.564 9.21 34.503 6.8c11.452-5.58 16.352-.797 19.055 4.511.136.273.252.564.369.836a49.694 49.694 0 018.341-1.594c-.019-.292-.038-.583-.019-.894.117-5.853-1.614-9.022 4.005-9.12C78.504.305 82.645 5.613 82.53 11.466c0 .311-.039.603-.058.894a56.2 56.2 0 018.244 3.072c.136-.252.252-.524.408-.777 2.897-4.822 9.139-6.008 13.922-2.645 4.783 3.364 6.319 9.975 3.422 14.797a6.418 6.418 0 01-.486.7 63.895 63.895 0 015.95 6.903c.233-.156.486-.292.738-.428 4.9-2.489 11.083-.195 13.767 5.114 2.702 5.308.914 11.646-4.006 14.135-.253.136-.505.233-.778.35a62.891 62.891 0 012.062 8.866c.272 0 .563 0 .855.04 5.6.505 10.053 5.638 9.936 11.49-.117 5.853-4.744 10.19-10.344 9.684-.292-.02-.584-.078-.875-.117a57.148 57.148 0 01-2.392 8.478c.253.155.506.31.758.486 4.784 3.363 6.32 9.974 3.423 14.796-2.898 4.822-12.503 7.058-17.305 3.695-.253-.175 2.897-1.42 2.663-1.595a48.908 48.908 0 01-6.222 5.795c.156.252.312.525.448.797 2.702 5.308.913 11.647-4.006 14.135-4.9 2.489-11.083.195-13.766-5.113-.136-.273-.253-.564-.37-.836a49.794 49.794 0 01-8.34 1.594c.019.292.038.583.019.894-.117 5.853-4.745 10.189-10.344 9.683-5.6-.505-10.053-5.638-9.936-11.491 0-.311.039-.603.058-.894a56.337 56.337 0 01-8.244-3.072c-.136.252-.253.525-.408.777-2.898 4.822-9.139 6.008-13.922 2.645-4.783-3.364-6.32-9.975-3.422-14.797.155-.253.31-.486.486-.7a63.67 63.67 0 01-5.95-6.903c-.233.137-.467.292-.72.428zm61.19.758c17.829-9.04 24.323-32.023 14.524-51.331-9.8-19.308-32.2-27.61-50.01-18.55-17.83 9.042-24.324 32.024-14.524 51.332 9.8 19.308 32.18 27.61 50.01 18.549z" fill="url(#paint0_linear_39_3406)"/><path d="M15.876 73.842c-5.6-.506-10.053-5.639-9.936-11.492.116-5.852 4.744-10.188 10.344-9.683.292.02.583.078.875.117a57.064 57.064 0 012.391-8.477c-.252-.156-.505-.312-.758-.486-4.783-3.364-10.713-11.472-7.33-15.964 6.416-8.536 13.047-4.841 17.85-1.478.252.175.485.35.7.545a48.9 48.9 0 016.221-5.794 10.476 10.476 0 01-.447-.798c-1.478-2.897-1.594-6.086-.622-8.788A1515.39 1515.39 0 0148.833 36.1c-14.214 10.422-18.744 30.955-9.858 48.454 7.524 14.836 22.496 23.158 37.118 22.127.661 1.692 1.283 3.383 1.983 5.075 1.886 4.55 4.045 9.003 6.203 13.436a58.586 58.586 0 01-4.083.602c.02.292.038.584.02.895-.118 5.852-3.676 10.811-13.825 10.286-5.62-.292-6.573-6.242-6.456-12.094 0-.311.04-.603.058-.895a56.112 56.112 0 01-8.244-3.072c-.136.253-.252.525-.408.778-2.897 4.822-12.969 6.864-17.752 3.5-4.783-3.364-2.489-10.85.408-15.672a6.4 6.4 0 01.486-.7 63.753 63.753 0 01-5.95-6.902c-.233.155-.486.291-.738.427-4.9 2.489-11.083.195-13.767-5.113-2.702-5.309-.914-11.647 4.006-14.136.253-.136.505-.233.778-.35a62.855 62.855 0 01-2.062-8.866c-.291 0-.583 0-.874-.04z" fill="url(#paint1_linear_39_3406)"/><path d="M22.506 102.93c-4.9 2.488-11.083.194-13.766-5.114-2.703-5.308-.914-11.647 4.005-14.136.253-.136.506-.233.778-.35a62.853 62.853 0 01-2.061-8.866c-.272 0-.564 0-.856-.04-5.6-.505-10.052-5.638-9.935-11.49.116-5.853 4.744-10.189 10.344-9.683.291.02.583.077.875.116a57.057 57.057 0 012.391-8.477 16.475 16.475 0 01-.758-.486c-4.783-3.364-6.32-9.975-3.422-14.797 2.897-4.822 9.138-6.008 13.922-2.644.252.175.486.35.7.544a48.9 48.9 0 016.222-5.794 10.55 10.55 0 01-.448-.797c-2.702-5.309-.913-11.647 4.006-14.136 4.9-2.489 11.083-.194 13.766 5.114.136.272.253.564.37.836a49.672 49.672 0 018.34-1.595c-.019-.291-.038-.583-.019-.894C57.077 4.388 61.705.052 67.305.558c5.6.505 10.052 5.639 9.935 11.491 0 .311-.039.603-.058.895a56.2 56.2 0 018.244 3.072c.136-.253.253-.525.409-.778 2.897-4.822 9.138-6.008 13.921-2.644 4.783 3.363 6.319 9.974 3.422 14.796a6.274 6.274 0 01-.486.7 63.672 63.672 0 015.95 6.903c.233-.156.486-.292.739-.428 4.9-2.489 11.083-.194 13.766 5.114 2.703 5.308.914 11.647-4.005 14.136-.253.136-.506.233-.778.35a62.88 62.88 0 012.061 8.866c.272 0 .564 0 .855.039 5.6.505 10.053 5.639 9.936 11.491-.116 5.853-4.744 10.189-10.344 9.683-.291-.02-.583-.078-.875-.117a57.031 57.031 0 01-2.391 8.478c.252.155.505.311.758.486 4.783 3.364 6.319 9.975 3.422 14.797-2.897 4.822-9.139 6.008-13.922 2.644a6.842 6.842 0 01-.7-.544 48.9 48.9 0 01-6.222 5.794c.156.253.311.525.447.797 2.703 5.308.914 11.647-4.005 14.136-4.9 2.489-11.083.194-13.766-5.114-.136-.272-.253-.564-.37-.836a49.59 49.59 0 01-8.341 1.594c.02.292.039.584.02.895-.117 5.852-4.745 10.188-10.345 9.683-5.6-.506-10.052-5.639-9.935-11.492 0-.311.038-.602.058-.894a56.221 56.221 0 01-8.244-3.072c-.136.253-.253.525-.409.778-2.897 4.822-9.138 6.008-13.921 2.644-4.784-3.364-6.32-9.975-3.422-14.797.155-.252.31-.486.486-.7a63.742 63.742 0 01-5.95-6.902 5.706 5.706 0 01-.739.428zm61.19.777c17.83-9.041 24.324-32.024 14.524-51.331-9.8-19.308-32.199-27.61-50.01-18.55-17.83 9.042-24.323 32.024-14.524 51.332 9.8 19.288 32.2 27.61 50.01 18.549z" fill="url(#paint2_linear_39_3406)"/><defs><linearGradient id="paint0_linear_39_3406" x1="55.585" y1="-35.857" x2="99.345" y2="254.875" gradientUnits="userSpaceOnUse"><stop stop-color="#444B8C"/><stop offset=".996" stop-color="#26264F"/></linearGradient><linearGradient id="paint1_linear_39_3406" x1="26.193" y1="-31.432" x2="69.953" y2="259.299" gradientUnits="userSpaceOnUse"><stop stop-color="#444B8C"/><stop offset=".996" stop-color="#26264F"/></linearGradient><linearGradient id="paint2_linear_39_3406" x1="14.544" y1="133.902" x2="202.28" y2="-103.896" gradientUnits="userSpaceOnUse"><stop stop-color="#826F8C"/><stop offset=".996" stop-color="#446381"/></linearGradient></defs></svg>